<svg width="32" height="32" viewBox="0 0 32 32" fill="none" xmlns="http://www.w3.org/2000/svg">
<path d="M16.7725 13.3064C16.5549 13.2862 16.3365 13.275 16.118 13.2729C11.784 13.2729 8.27246 16.7909 8.27246 21.1319C8.27246 22.4269 8.59096 23.6445 9.14446 24.721C8.85585 23.8448 8.70851 22.9284 8.70796 22.0059C8.70796 17.4035 12.2635 13.6414 16.7725 13.3064ZM19.2665 27.5694C18.5003 28.0826 17.6589 28.4733 16.7725 28.7275C18.0106 28.575 19.1955 28.1335 20.2315 27.4384C23.833 25.0174 24.8105 20.1884 22.415 16.6494C22.2927 16.4727 22.1631 16.3012 22.0265 16.1354C24.24 20.0019 23.084 25.0029 19.2665 27.5694Z" fill="#2BE21C"/>
<path d="M22.328 13.2595V8.9105C22.328 8.7285 22.2285 8.5755 22.088 8.4805L27 1H17.582L16 3.373L14.418 1H5L9.911 8.48C9.7705 8.575 9.671 8.7285 9.671 8.9105V13.2595C7.4305 15.0935 6 17.879 6 21C6 26.5225 10.4775 31 16 31C16.341 31 16.677 30.9825 17.009 30.949C22.0575 30.4435 26 26.1825 26 21C26 17.879 24.5685 15.0935 22.328 13.2595ZM20.413 1.5H23.577L19.164 8.1195L17.582 5.7465L20.413 1.5ZM20.746 10.4925L21.2325 9.7635C21.259 9.826 21.2735 9.894 21.2735 9.9655V12.075C21.273 12.1402 21.2597 12.2048 21.2342 12.2648C21.2087 12.3249 21.1716 12.3793 21.125 12.425C19.625 11.526 17.876 11 16 11C14.1935 11.0003 12.4213 11.4931 10.874 12.4255C10.7802 12.3328 10.7269 12.2068 10.7255 12.075V9.9655C10.7255 9.894 10.741 9.8255 10.7665 9.7635L11.253 10.493L20.746 10.4925ZM8.423 1.5H11.587L17.249 9.9925H14.085L8.423 1.5ZM16 29.5C11.3055 29.5 7.5 25.6945 7.5 21C7.5 16.306 11.3055 12.5 16 12.5C20.6935 12.5 24.5 16.306 24.5 21C24.5 25.6945 20.6935 29.5 16 29.5Z" fill="#2BE21C"/>
<path d="M17.117 24.6035V15.5H15.195C15.195 15.6993 15.1559 15.8966 15.0796 16.0807C15.0034 16.2648 14.8917 16.4321 14.7508 16.573C14.61 16.7139 14.4427 16.8257 14.2586 16.902C14.0745 16.9782 13.8772 17.0175 13.678 17.0175V18.914C13.815 18.914 14.8505 18.836 15.195 18.698V24.6035H13.678V26.5H18.634V24.6035H17.117Z" fill="#2BE21C"/>
</svg>
