<svg width="32" height="32" viewBox="0 0 32 32" fill="none" xmlns="http://www.w3.org/2000/svg">
<path d="M22.328 13.2595V8.9105C22.328 8.7285 22.2285 8.5755 22.088 8.4805L27 1H17.582L16 3.373L14.418 1H5L9.911 8.48C9.7705 8.575 9.671 8.7285 9.671 8.9105V13.2595C7.4305 15.0935 6 17.879 6 21C6 26.5225 10.4775 31 16 31C16.341 31 16.677 30.9825 17.009 30.949C22.0575 30.4435 26 26.1825 26 21C26 17.879 24.5685 15.0935 22.328 13.2595ZM20.413 1.5H23.577L19.164 8.1195L17.582 5.7465L20.413 1.5ZM20.746 10.4925L21.2325 9.7635C21.259 9.826 21.2735 9.894 21.2735 9.9655V12.075C21.273 12.1402 21.2597 12.2048 21.2342 12.2648C21.2087 12.3249 21.1716 12.3793 21.125 12.425C19.625 11.526 17.876 11 16 11C14.1935 11.0003 12.4213 11.4931 10.874 12.4255C10.7802 12.3328 10.7269 12.2068 10.7255 12.075V9.9655C10.7255 9.894 10.741 9.8255 10.7665 9.7635L11.253 10.493L20.746 10.4925ZM8.423 1.5H11.587L17.249 9.9925H14.085L8.423 1.5ZM16 29.5C11.3055 29.5 7.5 25.6945 7.5 21C7.5 16.306 11.3055 12.5 16 12.5C20.6935 12.5 24.5 16.306 24.5 21C24.5 25.6945 20.6935 29.5 16 29.5Z" fill="#7A7A7A"/>
<path d="M16.118 13.2729C11.785 13.2729 8.27246 16.7909 8.27246 21.1319C8.27246 22.4269 8.59096 23.6445 9.14446 24.721C8.85652 23.8444 8.70952 22.9276 8.70896 22.0049C8.70896 17.4034 12.2635 13.6424 16.7725 13.3064C16.5549 13.2862 16.3365 13.275 16.118 13.2729ZM19.2665 27.5694C18.5004 28.0828 17.659 28.4735 16.7725 28.7275C18.0106 28.575 19.1955 28.1335 20.2315 27.4384C23.833 25.0174 24.8105 20.1884 22.415 16.6504C22.293 16.4704 22.161 16.3014 22.0265 16.1349C24.24 20.0029 23.085 25.0029 19.2665 27.5694Z" fill="#7A7A7A"/>
<path d="M19.2239 24.6035H14.6719V23.466C14.672 23.0636 14.8319 22.6778 15.1163 22.3933C15.4008 22.1087 15.7866 21.9488 16.1889 21.9485C16.5874 21.9486 16.982 21.8702 17.3502 21.7178C17.7184 21.5654 18.0529 21.3419 18.3347 21.0602C18.6165 20.7784 18.84 20.4439 18.9925 20.0757C19.145 19.7076 19.2235 19.313 19.2234 18.9145C19.2234 17.436 18.4734 15.5005 15.8099 15.5005C14.0354 15.5005 12.7754 16.848 12.7754 18.9145H14.6719C14.6719 18.134 15.2604 17.4135 16.0229 17.4135C16.9309 17.4135 17.3269 18.011 17.3269 18.5355C17.3268 18.9377 17.1669 19.3235 16.8824 19.6078C16.5979 19.8922 16.2121 20.052 15.8099 20.052C15.4114 20.052 15.0167 20.1305 14.6485 20.283C14.2803 20.4356 13.9458 20.6591 13.664 20.941C13.3822 21.2228 13.1587 21.5574 13.0062 21.9256C12.8538 22.2938 12.7753 22.6885 12.7754 23.087V26.5H19.2234L19.2239 24.6035Z" fill="#7A7A7A"/>
</svg>
