<svg width="32" height="32" viewBox="0 0 32 32" fill="none" xmlns="http://www.w3.org/2000/svg">
<path d="M22.328 13.2605V8.912C22.3267 8.82599 22.3041 8.74164 22.2622 8.66651C22.2204 8.59138 22.1605 8.52781 22.088 8.4815L27 1H17.582L16 3.3735L14.418 1H5L9.911 8.4805C9.83851 8.52681 9.77864 8.59038 9.73675 8.66551C9.69487 8.74064 9.67228 8.82499 9.671 8.911V13.2595C7.4305 15.094 6 17.8795 6 21.0005C6 26.523 10.4775 31 16 31C16.341 31 16.677 30.9825 17.009 30.949C22.0575 30.444 26 26.183 26 21.0005C26 17.8795 24.5685 15.094 22.328 13.2605ZM20.413 1.5H23.577L19.164 8.12L17.582 5.747L20.413 1.5ZM20.746 10.4935L21.2325 9.764C21.259 9.8265 21.2735 9.894 21.2735 9.966V12.0755C21.2731 12.1407 21.2598 12.2052 21.2343 12.2652C21.2088 12.3252 21.1717 12.3795 21.125 12.425C19.625 11.5265 17.876 11 16 11C14.1934 11.0002 12.4211 11.4933 10.874 12.426C10.7803 12.3333 10.727 12.2073 10.7255 12.0755V9.966C10.7255 9.8935 10.741 9.8255 10.7665 9.764L11.253 10.4935H20.746ZM8.423 1.5H11.587L17.249 9.9935H14.085L8.423 1.5ZM16 29.5005C11.3055 29.5005 7.5 25.695 7.5 21.0005C7.5 16.306 11.3055 12.5005 16 12.5005C20.6935 12.5005 24.5 16.306 24.5 21.0005C24.5 25.695 20.6935 29.5005 16 29.5005Z" fill="#B0B402"/>
<path d="M16.118 13.2739C11.785 13.2739 8.27246 16.7924 8.27246 21.1324C8.27246 22.4274 8.59096 23.6449 9.14446 24.7224C8.85659 23.8455 8.70959 22.9284 8.70896 22.0054C8.70896 17.4039 12.2635 13.6429 16.7725 13.3074C16.5549 13.2871 16.3365 13.276 16.118 13.2739ZM19.2665 27.5699C18.5008 28.0841 17.6593 28.4748 16.7725 28.7279C18.0108 28.5764 19.196 28.1348 20.2315 27.4389C23.833 25.0179 24.8105 20.1889 22.416 16.6509C22.2932 16.4741 22.1636 16.3022 22.0275 16.1354C24.24 20.0034 23.084 25.0034 19.2665 27.5699Z" fill="#B0B402"/>
<path d="M19.4375 23.0845C19.4375 22.432 19.26 21.8765 18.905 21.416C18.5495 20.9555 18.0755 20.659 17.4825 20.527C18.475 19.9635 18.972 19.209 18.972 18.264C18.972 17.5975 18.7295 17.001 18.245 16.4715C17.657 15.824 16.8755 15.5015 15.9015 15.5015C15.332 15.5015 14.818 15.613 14.3595 15.836C13.9 16.0585 13.5425 16.365 13.2865 16.7545C13.03 17.1435 12.8385 17.664 12.7115 18.316L14.539 18.639C14.591 18.1685 14.737 17.8115 14.977 17.566C15.0883 17.448 15.223 17.3544 15.3724 17.2912C15.5218 17.228 15.6828 17.1966 15.845 17.199C16.1885 17.199 16.464 17.307 16.671 17.5225C16.878 17.7375 16.9815 18.0265 16.9815 18.389C16.9815 18.8155 16.84 19.157 16.5575 19.414C16.2755 19.6715 15.8655 19.793 15.329 19.7785L15.11 21.461C15.463 21.358 15.7665 21.3065 16.021 21.3065C16.4065 21.3065 16.7335 21.458 17.002 21.762C17.2705 22.065 17.405 22.477 17.405 22.996C17.405 23.5455 17.265 23.981 16.9845 24.3045C16.704 24.6275 16.3595 24.7895 15.9505 24.7895C15.569 24.7895 15.2445 24.654 14.9765 24.385C14.7085 24.116 14.544 23.726 14.4825 23.216L12.5625 23.459C12.6615 24.365 13.019 25.098 13.6355 25.6595C14.252 26.22 15.0285 26.501 15.965 26.501C16.953 26.501 17.7785 26.1675 18.4425 25.5015C19.106 24.8355 19.4375 24.03 19.4375 23.0845Z" fill="#B0B402"/>
</svg>
