<svg width="24" height="25" viewBox="0 0 24 25" fill="none" xmlns="http://www.w3.org/2000/svg">
<g id="keyboard_arrow_down">
<mask id="mask0_3095_8898" style="mask-type:alpha" maskUnits="userSpaceOnUse" x="0" y="0" width="24" height="25">
<rect id="Bounding box" y="0.5" width="24" height="24" fill="#D9D9D9"/>
</mask>
<g mask="url(#mask0_3095_8898)">
<path id="keyboard_arrow_down_2" d="M12 15.475C11.8667 15.475 11.7375 15.45 11.6125 15.4C11.4875 15.35 11.3834 15.2834 11.3 15.2L6.70005 10.6C6.51672 10.4167 6.42505 10.1834 6.42505 9.90005C6.42505 9.61672 6.51672 9.38338 6.70005 9.20005C6.88338 9.01672 7.11672 8.92505 7.40005 8.92505C7.68338 8.92505 7.91672 9.01672 8.10005 9.20005L12 13.1L15.9 9.20005C16.0834 9.01672 16.3167 8.92505 16.6 8.92505C16.8834 8.92505 17.1167 9.01672 17.3 9.20005C17.4834 9.38338 17.575 9.61672 17.575 9.90005C17.575 10.1834 17.4834 10.4167 17.3 10.6L12.7 15.2C12.6 15.3 12.4917 15.3709 12.375 15.4125C12.2584 15.4542 12.1334 15.475 12 15.475Z" fill="#1C1B1F"/>
</g>
</g>
</svg>
