<svg width="22" height="22" viewBox="0 0 22 22" fill="none" xmlns="http://www.w3.org/2000/svg">
<path d="M20.7097 7.71017C21.9597 6.46017 21.3897 5.00017 20.7097 4.29017L17.7097 1.29017C16.4497 0.0401732 14.9997 0.610173 14.2897 1.29017L12.5897 3.00017H9.99969C8.09969 3.00017 6.99968 4.00017 6.43968 5.15017L1.99968 9.59017V13.5902L1.28968 14.2902C0.0396849 15.5502 0.609685 17.0002 1.28968 17.7102L4.28968 20.7102C4.82968 21.2502 5.40968 21.4502 5.95968 21.4502C6.66968 21.4502 7.31968 21.1002 7.70968 20.7102L10.4097 18.0002H13.9997C15.6997 18.0002 16.5597 16.9402 16.8697 15.9002C17.9997 15.6002 18.6197 14.7402 18.8697 13.9002C20.4197 13.5002 20.9997 12.0302 20.9997 11.0002V8.00017H20.4097L20.7097 7.71017ZM18.9997 11.0002C18.9997 11.4502 18.8097 12.0002 17.9997 12.0002H16.9997V13.0002C16.9997 13.4502 16.8097 14.0002 15.9997 14.0002H14.9997V15.0002C14.9997 15.4502 14.8097 16.0002 13.9997 16.0002H9.58969L6.30968 19.2802C5.99968 19.5702 5.81968 19.4002 5.70968 19.2902L2.71968 16.3102C2.42968 16.0002 2.59968 15.8202 2.70968 15.7102L3.99968 14.4102V10.4102L5.99968 8.41017V10.0002C5.99968 11.2102 6.79969 13.0002 8.99969 13.0002C11.1997 13.0002 11.9997 11.2102 11.9997 10.0002H18.9997V11.0002ZM19.2897 6.29017L17.5897 8.00017H9.99969V10.0002C9.99969 10.4502 9.80969 11.0002 8.99969 11.0002C8.18969 11.0002 7.99968 10.4502 7.99968 10.0002V7.00017C7.99968 6.54017 8.16969 5.00017 9.99969 5.00017H13.4097L15.6897 2.72017C15.9997 2.43017 16.1797 2.60017 16.2897 2.71017L19.2797 5.69017C19.5697 6.00017 19.3997 6.18017 19.2897 6.29017Z" fill="black"/>
</svg>
