<svg width="24" height="24" viewBox="0 0 24 24" fill="none" xmlns="http://www.w3.org/2000/svg">
  <mask id="mask0_770_2728" style="mask-type:alpha" maskUnits="userSpaceOnUse" x="0" y="0" width="24" height="24">
    <rect width="24" height="24" fill="#111"/>
  </mask>
  <g mask="url(#mask0_770_2728)">
    <path d="M12.5 13.884L7.65589 18.7281C7.47465 18.9094 7.24398 19 6.96388 19C6.68378 19 6.45311 18.9094 6.27186 18.7281C6.09062 18.5469 6 18.3162 6 18.0361C6 17.756 6.09062 17.5253 6.27186 17.3441L11.116 12.5L6.27186 7.65589C6.09062 7.47465 6 7.24398 6 6.96388C6 6.68378 6.09062 6.45311 6.27186 6.27186C6.45311 6.09062 6.68378 6 6.96388 6C7.24398 6 7.47465 6.09062 7.65589 6.27186L12.5 11.116L17.3441 6.27186C17.5253 6.09062 17.756 6 18.0361 6C18.3162 6 18.5469 6.09062 18.7281 6.27186C18.9094 6.45311 19 6.68378 19 6.96388C19 7.24398 18.9094 7.47465 18.7281 7.65589L13.884 12.5L18.7281 17.3441C18.9094 17.5253 19 17.756 19 18.0361C19 18.3162 18.9094 18.5469 18.7281 18.7281C18.5469 18.9094 18.3162 19 18.0361 19C17.756 19 17.5253 18.9094 17.3441 18.7281L12.5 13.884Z" fill="#111"/>
  </g>
</svg>
