<svg width="40" height="40" viewBox="0 0 40 40" fill="none" xmlns="http://www.w3.org/2000/svg">
<g id="download">
<mask id="mask0_2954_10688" style="mask-type:alpha" maskUnits="userSpaceOnUse" x="0" y="0" width="40" height="40">
<rect id="Bounding box" width="40" height="40" fill="#D9D9D9"/>
</mask>
<g mask="url(#mask0_2954_10688)">
<path id="download_2" d="M19.9998 25.9577C19.7776 25.9577 19.5693 25.923 19.3748 25.8535C19.1804 25.7841 18.9998 25.666 18.8332 25.4993L12.8332 19.4993C12.4998 19.166 12.3401 18.7771 12.354 18.3327C12.3679 17.8882 12.5276 17.4993 12.8332 17.166C13.1665 16.8327 13.5623 16.6591 14.0207 16.6452C14.479 16.6313 14.8748 16.791 15.2082 17.1243L18.3332 20.2493V8.33268C18.3332 7.86046 18.4929 7.46463 18.8123 7.14518C19.1318 6.82574 19.5276 6.66602 19.9998 6.66602C20.4721 6.66602 20.8679 6.82574 21.1873 7.14518C21.5068 7.46463 21.6665 7.86046 21.6665 8.33268V20.2493L24.7915 17.1243C25.1248 16.791 25.5207 16.6313 25.979 16.6452C26.4373 16.6591 26.8332 16.8327 27.1665 17.166C27.4721 17.4993 27.6318 17.8882 27.6457 18.3327C27.6596 18.7771 27.4998 19.166 27.1665 19.4993L21.1665 25.4993C20.9998 25.666 20.8193 25.7841 20.6248 25.8535C20.4304 25.923 20.2221 25.9577 19.9998 25.9577ZM9.99984 33.3327C9.08317 33.3327 8.29845 33.0063 7.64567 32.3535C6.99289 31.7007 6.6665 30.916 6.6665 29.9993V26.666C6.6665 26.1938 6.82623 25.798 7.14567 25.4785C7.46512 25.1591 7.86095 24.9993 8.33317 24.9993C8.80539 24.9993 9.20123 25.1591 9.52067 25.4785C9.84011 25.798 9.99984 26.1938 9.99984 26.666V29.9993H29.9998V26.666C29.9998 26.1938 30.1596 25.798 30.479 25.4785C30.7984 25.1591 31.1943 24.9993 31.6665 24.9993C32.1387 24.9993 32.5346 25.1591 32.854 25.4785C33.1734 25.798 33.3332 26.1938 33.3332 26.666V29.9993C33.3332 30.916 33.0068 31.7007 32.354 32.3535C31.7012 33.0063 30.9165 33.3327 29.9998 33.3327H9.99984Z" fill="white"/>
</g>
</g>
</svg>
