<svg width="20" height="21" viewBox="0 0 20 21" fill="none" xmlns="http://www.w3.org/2000/svg">
<path d="M1.2894 17.1287H2.52301C2.80552 17.1287 2.91852 17.0722 3.12569 16.9121L3.75662 16.4319C4.10504 16.7803 4.62297 16.8556 5.1409 16.6296L8.25788 15.3301C8.4933 15.2359 8.61572 15.1418 8.76639 14.9911L17.8631 5.96033C18.7671 5.05631 18.7671 3.97337 17.8536 3.05052L15.8102 0.997643C14.8968 0.0842087 13.8138 0.0747918 12.9098 0.97881L3.81312 10.0002C3.65303 10.1602 3.56828 10.2732 3.4647 10.5181L2.14634 13.6256C1.92975 14.1247 1.98625 14.6144 2.33468 15.0005L0.978649 16.4036C0.686726 16.7144 0.827979 17.1287 1.2894 17.1287ZM13.9551 2.22183C14.1999 1.98641 14.4918 1.977 14.7178 2.21242L16.6389 4.14287C16.8743 4.37829 16.8649 4.6608 16.6106 4.90564L15.9985 5.51773L13.3336 2.84335L13.9551 2.22183ZM5.4799 10.6499L12.3165 3.86037L14.9721 6.53475L8.14487 13.3243L5.4799 10.6499ZM4.95256 14.9628C4.77364 15.0288 4.65122 15.0288 4.49114 14.8687L3.89787 14.2848C3.7472 14.1342 3.7472 13.9929 3.81312 13.8328L4.66064 11.8647L6.92068 14.1436L4.95256 14.9628ZM0.969232 20.4717H19.0402C19.4922 20.4717 19.8594 20.0856 19.8594 19.6336C19.8594 19.1816 19.4922 18.8049 19.0402 18.8049H0.969232C0.507806 18.8049 0.140549 19.1816 0.140549 19.6336C0.140549 20.0856 0.517223 20.4717 0.969232 20.4717Z" fill="black"/>
</svg>
