<svg width="24" height="24" viewBox="0 0 24 24" fill="none" xmlns="http://www.w3.org/2000/svg">
<path d="M22.5 4.125C22.5 4.42337 22.3815 4.70952 22.1705 4.9205C21.9595 5.13147 21.6734 5.25 21.375 5.25H15.375C15.0766 5.25 14.7905 5.13147 14.5795 4.9205C14.3685 4.70952 14.25 4.42337 14.25 4.125C14.25 3.82663 14.3685 3.54048 14.5795 3.3295C14.7905 3.11853 15.0766 3 15.375 3H21.375C21.6734 3 21.9595 3.11853 22.1705 3.3295C22.3815 3.54048 22.5 3.82663 22.5 4.125ZM9.75 5.25V7.125C9.75 7.42337 9.86853 7.70952 10.0795 7.9205C10.2905 8.13147 10.5766 8.25 10.875 8.25C11.1734 8.25 11.4595 8.13147 11.6705 7.9205C11.8815 7.70952 12 7.42337 12 7.125V1.125C12 0.826631 11.8815 0.540483 11.6705 0.329505C11.4595 0.118526 11.1734 0 10.875 0C10.5766 0 10.2905 0.118526 10.0795 0.329505C9.86853 0.540483 9.75 0.826631 9.75 1.125V3H2.625C2.32663 3 2.04048 3.11853 1.8295 3.3295C1.61853 3.54048 1.5 3.82663 1.5 4.125C1.5 4.42337 1.61853 4.70952 1.8295 4.9205C2.04048 5.13147 2.32663 5.25 2.625 5.25H9.75ZM11.625 13.125C11.9234 13.125 12.2095 13.0065 12.4205 12.7955C12.6315 12.5845 12.75 12.2984 12.75 12C12.75 11.7016 12.6315 11.4155 12.4205 11.2045C12.2095 10.9935 11.9234 10.875 11.625 10.875H2.625C2.32663 10.875 2.04048 10.9935 1.8295 11.2045C1.61853 11.4155 1.5 11.7016 1.5 12C1.5 12.2984 1.61853 12.5845 1.8295 12.7955C2.04048 13.0065 2.32663 13.125 2.625 13.125H11.625ZM22.5 12C22.5 12.2984 22.3815 12.5845 22.1705 12.7955C21.9595 13.0065 21.6734 13.125 21.375 13.125H17.25V15C17.25 15.2984 17.1315 15.5845 16.9205 15.7955C16.7095 16.0065 16.4234 16.125 16.125 16.125C15.8266 16.125 15.5405 16.0065 15.3295 15.7955C15.1185 15.5845 15 15.2984 15 15V9C15 8.70163 15.1185 8.41548 15.3295 8.2045C15.5405 7.99353 15.8266 7.875 16.125 7.875C16.4234 7.875 16.7095 7.99353 16.9205 8.2045C17.1315 8.41548 17.25 8.70163 17.25 9V10.875H21.375C21.6734 10.875 21.9595 10.9935 22.1705 11.2045C22.3815 11.4155 22.5 11.7016 22.5 12ZM9 19.875V16.875C9 16.5766 8.88147 16.2905 8.6705 16.0795C8.45952 15.8685 8.17337 15.75 7.875 15.75C7.57663 15.75 7.29048 15.8685 7.0795 16.0795C6.86853 16.2905 6.75 16.5766 6.75 16.875V18.75H2.625C2.32663 18.75 2.04048 18.8685 1.8295 19.0795C1.61853 19.2905 1.5 19.5766 1.5 19.875C1.5 20.1734 1.61853 20.4595 1.8295 20.6705C2.04048 20.8815 2.32663 21 2.625 21H6.75V22.875C6.75 23.1734 6.86853 23.4595 7.0795 23.6705C7.29048 23.8815 7.57663 24 7.875 24C8.17337 24 8.45952 23.8815 8.6705 23.6705C8.88147 23.4595 9 23.1734 9 22.875V19.875ZM22.5 19.875C22.5 20.1734 22.3815 20.4595 22.1705 20.6705C21.9595 20.8815 21.6734 21 21.375 21H12.375C12.0766 21 11.7905 20.8815 11.5795 20.6705C11.3685 20.4595 11.25 20.1734 11.25 19.875C11.25 19.5766 11.3685 19.2905 11.5795 19.0795C11.7905 18.8685 12.0766 18.75 12.375 18.75H21.375C21.6734 18.75 21.9595 18.8685 22.1705 19.0795C22.3815 19.2905 22.5 19.5766 22.5 19.875Z" fill="black"/>
</svg>
