<svg width="24" height="24" viewBox="0 0 24 24" fill="none" xmlns="http://www.w3.org/2000/svg">
<path d="M14.7428 1.08493C14.8414 1.08476 14.939 1.10402 15.0301 1.1416C15.1212 1.17919 15.204 1.23436 15.2738 1.30397L22.6983 8.72952C22.8389 8.87017 22.9178 9.06091 22.9178 9.25978C22.9178 9.45866 22.8388 9.64938 22.6982 9.79002C21.9781 10.51 21.0901 10.6719 20.4436 10.6718C20.1781 10.6718 19.9411 10.6448 19.7536 10.6133L15.0523 15.314C15.1755 15.8127 15.2557 16.321 15.2922 16.8335C15.3611 17.8865 15.244 19.364 14.2119 20.3959C14.0712 20.5365 13.8805 20.6155 13.6816 20.6154C13.4828 20.6154 13.292 20.5364 13.1514 20.3958L8.90822 16.1535L4.13487 20.9261C3.84234 21.2186 2.30627 22.279 2.01379 21.9865C1.72131 21.694 2.78192 20.1565 3.07444 19.8656L7.8478 15.0929L3.60611 10.8491C3.46552 10.7085 3.38654 10.5177 3.38656 10.3188C3.38657 10.12 3.46557 9.92924 3.60619 9.78861C4.63826 8.75668 6.11577 8.63829 7.16877 8.70887C7.68119 8.74539 8.18954 8.82573 8.68825 8.94898L13.3896 4.24983C13.3518 4.02121 13.3318 3.79003 13.3296 3.55832C13.3297 2.91332 13.4918 2.02534 14.2133 1.30389C14.3539 1.1637 14.5443 1.08496 14.7428 1.08493ZM14.9256 4.24994L14.9256 4.25294C14.9689 4.3849 14.9747 4.52629 14.9424 4.66136C14.9101 4.79643 14.8409 4.91987 14.7425 5.01793L9.43965 10.3185C9.34112 10.4166 9.21726 10.4854 9.0819 10.5172C8.94655 10.549 8.80502 10.5425 8.67314 10.4985L8.67014 10.4985L8.64914 10.4925C8.5063 10.4502 8.36224 10.4122 8.21714 10.3784C7.83972 10.2909 7.45608 10.2327 7.06966 10.2044C6.43666 10.1623 5.81566 10.2163 5.30714 10.4292L13.5715 18.6933C13.7831 18.1834 13.8371 17.5639 13.7952 16.9309C13.7561 16.3951 13.6596 15.865 13.5073 15.3498L13.5013 15.3303C13.457 15.1982 13.4504 15.0549 13.4822 14.9193C13.514 14.7836 13.583 14.6595 13.6813 14.5609L18.9857 9.25874C19.0879 9.15599 19.2176 9.08502 19.3592 9.05442C19.5008 9.02382 19.6483 9.03489 19.7837 9.0863L19.9277 9.11931C20.0582 9.14482 20.2397 9.17033 20.4437 9.17035C20.6157 9.17236 20.7872 9.15238 20.9582 9.11039L14.8912 3.04394C14.8492 3.21594 14.8292 3.38744 14.8311 3.55844C14.8322 3.79149 14.8635 4.02342 14.9241 4.24844L14.9256 4.24994Z" fill="white"/>
</svg>
