<svg width="168" height="168" viewBox="0 0 168 168" fill="none" xmlns="http://www.w3.org/2000/svg">
  <path d="M141.75 26.25H26.25C23.4652 26.25 20.7945 27.3562 18.8254 29.3254C16.8562 31.2945 15.75 33.9652 15.75 36.75V131.25C15.75 134.035 16.8562 136.705 18.8254 138.675C20.7945 140.644 23.4652 141.75 26.25 141.75H141.75C144.535 141.75 147.205 140.644 149.175 138.675C151.144 136.705 152.25 134.035 152.25 131.25V36.75C152.25 33.9652 151.144 31.2945 149.175 29.3254C147.205 27.3562 144.535 26.25 141.75 26.25ZM141.75 36.75V104.18L124.642 87.0778C123.667 86.1025 122.509 85.3289 121.235 84.8011C119.961 84.2733 118.595 84.0016 117.216 84.0016C115.837 84.0016 114.471 84.2733 113.197 84.8011C111.923 85.3289 110.766 86.1025 109.791 87.0778L96.6656 100.203L67.7906 71.3278C65.8217 69.3602 63.152 68.2549 60.3684 68.2549C57.5849 68.2549 54.9152 69.3602 52.9463 71.3278L26.25 98.0241V36.75H141.75ZM26.25 112.875L60.375 78.75L112.875 131.25H26.25V112.875ZM141.75 131.25H127.726L104.101 107.625L117.226 94.5L141.75 119.031V131.25ZM94.5 65.625C94.5 64.0675 94.9619 62.5449 95.8272 61.2499C96.6925 59.9548 97.9224 58.9455 99.3614 58.3494C100.8 57.7534 102.384 57.5975 103.911 57.9013C105.439 58.2052 106.842 58.9552 107.943 60.0565C109.045 61.1579 109.795 62.5611 110.099 64.0887C110.403 65.6163 110.247 67.1997 109.651 68.6386C109.055 70.0776 108.045 71.3075 106.75 72.1728C105.455 73.0381 103.933 73.5 102.375 73.5C100.286 73.5 98.2834 72.6703 96.8065 71.1935C95.3297 69.7166 94.5 67.7136 94.5 65.625Z" fill="black" fill-opacity="0.16"/>
</svg>