<svg width="20" height="20" viewBox="0 0 20 20" fill="none" xmlns="http://www.w3.org/2000/svg">
<path d="M10 0.25C8.07164 0.25 6.18657 0.821828 4.58319 1.89317C2.97982 2.96451 1.73013 4.48726 0.992179 6.26884C0.254225 8.05042 0.061142 10.0108 0.437348 11.9021C0.813554 13.7934 1.74215 15.5307 3.10571 16.8943C4.46928 18.2579 6.20656 19.1865 8.09787 19.5627C9.98919 19.9389 11.9496 19.7458 13.7312 19.0078C15.5127 18.2699 17.0355 17.0202 18.1068 15.4168C19.1782 13.8134 19.75 11.9284 19.75 10C19.7473 7.41498 18.7192 4.93661 16.8913 3.10872C15.0634 1.28084 12.585 0.25273 10 0.25ZM10.75 3.94187L13.0741 2.34344C14.4047 2.87945 15.5734 3.75163 16.4659 4.87469L15.7159 7.40031C15.6972 7.40031 15.6775 7.40969 15.6588 7.41625L13.5194 8.11094C13.4873 8.1212 13.456 8.13373 13.4256 8.14844L10.75 6.30813V3.94187ZM6.92875 2.34344L9.25 3.94187V6.30813L6.5725 8.15219C6.54218 8.13748 6.51085 8.12495 6.47875 8.11469L4.33938 7.42C4.32063 7.41344 4.30094 7.40875 4.28219 7.40406L3.53219 4.87844C4.42555 3.75336 5.596 2.8798 6.92875 2.34344ZM5.71 14.4456H3.05313C2.27541 13.2364 1.82954 11.8439 1.76032 10.4078L3.82282 8.82531C3.84056 8.83316 3.85871 8.84004 3.87719 8.84594L6.0175 9.54156C6.04612 9.55021 6.07524 9.55709 6.10469 9.56219L7.11625 12.5078C7.10219 12.5247 7.08813 12.5416 7.075 12.5594L5.75313 14.3791C5.73756 14.4005 5.72316 14.4227 5.71 14.4456ZM12.1272 17.9688C10.7334 18.34 9.26665 18.34 7.87282 17.9688L6.92969 15.3063C6.94188 15.2913 6.955 15.2772 6.96625 15.2612L8.28907 13.4406C8.30463 13.4196 8.31902 13.3976 8.33219 13.375H11.6678C11.681 13.3976 11.6954 13.4196 11.7109 13.4406L13.0338 15.2612C13.045 15.2772 13.0581 15.2913 13.0703 15.3063L12.1272 17.9688ZM14.29 14.4428C14.2768 14.4199 14.2624 14.3976 14.2469 14.3762L12.9241 12.5594C12.9109 12.5416 12.8969 12.5247 12.8828 12.5078L13.8944 9.56219C13.9238 9.55709 13.953 9.55021 13.9816 9.54156L16.1219 8.84594C16.1404 8.84004 16.1585 8.83316 16.1763 8.82531L18.2388 10.4078C18.1695 11.8439 17.7237 13.2364 16.9459 14.4456L14.29 14.4428Z" fill="black"/>
</svg>
