<svg width="24" height="24" viewBox="0 0 24 24" fill="none" xmlns="http://www.w3.org/2000/svg">
<g clip-path="url(#clip0_5761_17445)">
<path d="M22.7078 17.6045L20.3771 15.2738C19.9553 14.8522 19.427 14.553 18.8485 14.4082C18.27 14.2633 17.663 14.2781 17.0923 14.4511C16.5216 14.6241 16.0085 14.9488 15.6078 15.3905C15.2072 15.8322 14.9339 16.3743 14.8171 16.9592C10.9738 16.2405 7.23579 12.5178 7.00313 9.19049C7.65651 9.07029 8.25783 8.75405 8.72713 8.28382C9.34503 7.66584 9.69215 6.82772 9.69215 5.95382C9.69215 5.07992 9.34503 4.2418 8.72713 3.62382L6.39713 1.29315C5.77914 0.675252 4.94103 0.328125 4.06713 0.328125C3.19323 0.328125 2.35511 0.675252 1.73713 1.29315C-5.25354 8.28382 15.7171 29.2545 22.7078 22.2638C23.3253 21.6458 23.6722 20.8078 23.6722 19.9342C23.6722 19.0605 23.3253 18.2225 22.7078 17.6045Z" fill="#002B6B"/>
</g>
<defs>
<clipPath id="clip0_5761_17445">
<rect width="24" height="24" fill="white"/>
</clipPath>
</defs>
</svg>
