<svg width="110" height="110" viewBox="0 0 110 110" fill="none" xmlns="http://www.w3.org/2000/svg">
  <path d="M89.375 24.9219H77.0043L70.8984 15.7566C70.6626 15.4032 70.3431 15.1135 69.9682 14.9133C69.5934 14.7132 69.1749 14.6087 68.75 14.6094H41.25C40.8251 14.6087 40.4066 14.7132 40.0318 14.9133C39.6569 15.1135 39.3374 15.4032 39.1016 15.7566L32.9914 24.9219H20.625C18.1179 24.9219 15.7134 25.9178 13.9406 27.6906C12.1678 29.4634 11.1719 31.8679 11.1719 34.375V82.5C11.1719 85.0071 12.1678 87.4116 13.9406 89.1844C15.7134 90.9572 18.1179 91.9531 20.625 91.9531H89.375C91.8821 91.9531 94.2866 90.9572 96.0594 89.1844C97.8322 87.4116 98.8281 85.0071 98.8281 82.5V34.375C98.8281 31.8679 97.8322 29.4634 96.0594 27.6906C94.2866 25.9178 91.8821 24.9219 89.375 24.9219ZM93.6719 82.5C93.6719 83.6396 93.2192 84.7325 92.4134 85.5384C91.6075 86.3442 90.5146 86.7969 89.375 86.7969H20.625C19.4854 86.7969 18.3925 86.3442 17.5867 85.5384C16.7808 84.7325 16.3281 83.6396 16.3281 82.5V34.375C16.3281 33.2354 16.7808 32.1425 17.5867 31.3367C18.3925 30.5308 19.4854 30.0781 20.625 30.0781H34.375C34.7999 30.0788 35.2184 29.9743 35.5932 29.7742C35.9681 29.574 36.2876 29.2843 36.5234 28.9309L42.6293 19.7656H67.3664L73.4766 28.9309C73.7124 29.2843 74.0319 29.574 74.4068 29.7742C74.7816 29.9743 75.2001 30.0788 75.625 30.0781H89.375C90.5146 30.0781 91.6075 30.5308 92.4134 31.3367C93.2192 32.1425 93.6719 33.2354 93.6719 34.375V82.5ZM55 38.6719C51.4307 38.6719 47.9415 39.7303 44.9737 41.7133C42.0059 43.6963 39.6928 46.5149 38.3269 49.8125C36.9609 53.1101 36.6035 56.7388 37.2999 60.2395C37.9962 63.7403 39.715 66.9559 42.2389 69.4798C44.7628 72.0037 47.9785 73.7225 51.4792 74.4189C54.98 75.1152 58.6086 74.7578 61.9062 73.3919C65.2039 72.026 68.0224 69.7129 70.0054 66.7451C71.9884 63.7773 73.0469 60.2881 73.0469 56.7188C73.0469 51.9324 71.1455 47.3421 67.7611 43.9577C64.3766 40.5732 59.7863 38.6719 55 38.6719ZM55 69.6094C52.4505 69.6094 49.9582 68.8534 47.8384 67.4369C45.7185 66.0205 44.0663 64.0072 43.0906 61.6518C42.115 59.2963 41.8597 56.7045 42.3571 54.2039C42.8545 51.7034 44.0822 49.4065 45.885 47.6037C47.6877 45.8009 49.9846 44.5732 52.4852 44.0758C54.9857 43.5784 57.5776 43.8337 59.933 44.8094C62.2885 45.785 64.3017 47.4373 65.7182 49.5571C67.1346 51.677 67.8906 54.1692 67.8906 56.7188C67.8906 60.1376 66.5325 63.4163 64.1151 65.8338C61.6976 68.2513 58.4188 69.6094 55 69.6094Z" fill="#9E9E9E"/>
</svg>
