<svg width="22" height="22" viewBox="0 0 22 22" fill="none" xmlns="http://www.w3.org/2000/svg">
<path d="M13.742 0.0820324C13.8406 0.0818564 13.9382 0.101107 14.0293 0.138685C14.1204 0.176263 14.2032 0.23143 14.273 0.301032L21.698 7.72603C21.8386 7.86668 21.9176 8.05741 21.9176 8.25628C21.9176 8.45516 21.8386 8.64589 21.698 8.78653C20.978 9.50653 20.09 9.66853 19.4435 9.66853C19.178 9.66853 18.941 9.64153 18.7535 9.61003L14.0525 14.311C14.1757 14.8098 14.256 15.3181 14.2925 15.8305C14.3615 16.8835 14.2445 18.361 13.2125 19.393C13.0719 19.5336 12.8811 19.6126 12.6823 19.6126C12.4834 19.6126 12.2927 19.5336 12.152 19.393L7.90851 15.151L3.13551 19.924C2.84301 20.2165 1.30701 21.277 1.01451 20.9845C0.722007 20.692 1.78251 19.1545 2.07501 18.8635L6.84801 14.0905L2.60601 9.84703C2.4654 9.70639 2.38642 9.51566 2.38642 9.31678C2.38642 9.11791 2.4654 8.92718 2.60601 8.78653C3.63801 7.75453 5.11551 7.63603 6.16851 7.70653C6.68093 7.74302 7.18928 7.82331 7.68801 7.94653L12.389 3.24703C12.3512 3.01842 12.3312 2.78723 12.329 2.55553C12.329 1.91053 12.491 1.02253 13.2125 0.301032C13.3531 0.160829 13.5435 0.0820746 13.742 0.0820324ZM13.925 3.24703V3.25003C13.9683 3.38199 13.9742 3.52338 13.9418 3.65845C13.9095 3.79352 13.8403 3.91697 13.742 4.01503L8.43951 9.31603C8.34098 9.41413 8.21713 9.48292 8.08178 9.5147C7.94642 9.54649 7.8049 9.54002 7.67301 9.49603H7.67001L7.64901 9.49003C7.50617 9.44775 7.36211 9.40973 7.21701 9.37603C6.83958 9.28848 6.45593 9.23031 6.06951 9.20203C5.43651 9.16003 4.81551 9.21403 4.30701 9.42703L12.572 17.6905C12.7835 17.1805 12.8375 16.561 12.7955 15.928C12.7564 15.3922 12.6599 14.8622 12.5075 14.347L12.5015 14.3275C12.4572 14.1954 12.4506 14.0521 12.4824 13.9165C12.5142 13.7808 12.5831 13.6567 12.6815 13.558L17.9855 8.25553C18.0876 8.15277 18.2174 8.0818 18.359 8.05118C18.5006 8.02057 18.648 8.03163 18.7835 8.08303L18.9275 8.11603C19.058 8.14153 19.2395 8.16703 19.4435 8.16703C19.6155 8.16903 19.787 8.14903 19.958 8.10703L13.8905 2.04103C13.8485 2.21303 13.8285 2.38453 13.8305 2.55553C13.8316 2.78858 13.8629 3.02051 13.9235 3.24553L13.925 3.24703Z" fill="black"/>
</svg>
