<svg width="12" height="20" viewBox="0 0 12 20" fill="none" xmlns="http://www.w3.org/2000/svg">
<path fill-rule="evenodd" clip-rule="evenodd" d="M4.488 1.788C5.47244 0.803396 6.80768 0.250165 8.2 0.25H10.9C11.0989 0.25 11.2897 0.329018 11.4303 0.46967C11.571 0.610322 11.65 0.801088 11.65 1V4.6C11.65 4.79891 11.571 4.98968 11.4303 5.13033C11.2897 5.27098 11.0989 5.35 10.9 5.35H8.2C8.1803 5.35 8.1608 5.35388 8.1426 5.36142C8.1244 5.36896 8.10786 5.38 8.09393 5.39393C8.08001 5.40786 8.06896 5.4244 8.06142 5.4426C8.05388 5.4608 8.05 5.4803 8.05 5.5V7.45H10.9C11.014 7.44994 11.1266 7.47587 11.229 7.52583C11.3315 7.57579 11.4213 7.64846 11.4915 7.73832C11.5617 7.82817 11.6104 7.93285 11.6341 8.04439C11.6578 8.15593 11.6557 8.27139 11.628 8.382L10.728 11.982C10.6874 12.1443 10.5937 12.2884 10.4618 12.3913C10.3299 12.4942 10.1673 12.5501 10 12.55H8.05V19C8.05 19.1989 7.97098 19.3897 7.83033 19.5303C7.68968 19.671 7.49891 19.75 7.3 19.75H3.7C3.50109 19.75 3.31032 19.671 3.16967 19.5303C3.02902 19.3897 2.95 19.1989 2.95 19V12.55H1C0.801088 12.55 0.610322 12.471 0.46967 12.3303C0.329018 12.1897 0.25 11.9989 0.25 11.8V8.2C0.25 8.10151 0.269399 8.00398 0.30709 7.91299C0.344781 7.82199 0.400026 7.73931 0.46967 7.66967C0.539314 7.60003 0.621993 7.54478 0.712987 7.50709C0.803982 7.4694 0.901509 7.45 1 7.45H2.95V5.5C2.95016 4.10768 3.5034 2.77244 4.488 1.788ZM8.2 1.75C7.20544 1.75 6.25161 2.14509 5.54835 2.84835C4.84509 3.55161 4.45 4.50544 4.45 5.5V8.2C4.45 8.39891 4.37098 8.58968 4.23033 8.73033C4.08968 8.87098 3.89891 8.95 3.7 8.95H1.75V11.05H3.7C3.89891 11.05 4.08968 11.129 4.23033 11.2697C4.37098 11.4103 4.45 11.6011 4.45 11.8V18.25H6.55V11.8C6.55 11.6011 6.62902 11.4103 6.76967 11.2697C6.91032 11.129 7.10109 11.05 7.3 11.05H9.414L9.939 8.95H7.3C7.10109 8.95 6.91032 8.87098 6.76967 8.73033C6.62902 8.58968 6.55 8.39891 6.55 8.2V5.5C6.55 5.06239 6.72384 4.64271 7.03327 4.33327C7.34271 4.02384 7.76239 3.85 8.2 3.85H10.15V1.75H8.2Z" fill="#181818"/>
</svg>
