<svg width="211" height="64" viewBox="0 0 211 64" fill="none" xmlns="http://www.w3.org/2000/svg">
<g clip-path="url(#clip0_1903_7946)">
<path d="M14.6408 58.7701C29.4134 68.4107 44.608 62.5959 50.3258 58.1963C47.6474 53.3086 43.881 46.7777 39.5146 39.8521C26.6204 48.3546 16.9167 56.2122 14.6408 58.7677V58.7701Z" fill="#021F4B"/>
<path d="M15.3507 4.57373C6.11296 10.229 0 20.262 0 31.9306C0 33.8117 0.287841 35.5995 0.595197 37.3922C8.44496 29.7872 17.2339 23.5065 25.291 18.3147C21.0636 11.9433 15.3727 4.60071 15.3507 4.57373Z" fill="#002B6A"/>
<path d="M29.5524 24.7329C15.619 33.672 5.20304 42.6872 3.0296 45.2353C4.43466 48.3008 6.2983 51.0745 8.54005 53.5294C16.4752 45.9416 26.1935 39.0036 35.1897 33.0736C33.3041 30.1503 31.4014 27.5189 29.5524 24.7329Z" fill="#002B6A"/>
<path d="M42.5395 28.3623C45.7179 26.5769 48.6695 24.8161 51.1991 23.3495C49.7111 20.3674 47.9231 17.4931 45.9057 14.739C42.9322 16.2939 40.0123 18.089 37.1315 19.9112C39.1634 22.7781 40.7807 25.4905 42.5395 28.3623Z" fill="#002B6A"/>
<path d="M56.951 20.289C58.7951 19.4919 60.2636 18.8469 61.1345 18.5281C59.7392 15.8305 57.7365 12.6962 55.6313 10.1555C54.3848 10.6656 52.992 11.2076 51.7357 11.7815C53.6213 14.2952 55.4606 17.167 56.9534 20.289H56.951Z" fill="#002B6A"/>
<path d="M46.5546 6.14083C47.8011 5.53262 48.7817 5.07157 49.1988 4.87782C46.0594 2.89135 42.8737 1.56949 39.0683 0.720947C39.222 0.789615 43.9372 3.66387 46.5546 6.13837V6.14083Z" fill="#002B6A"/>
<path d="M32.4358 13.6748C35.8167 11.7349 38.4731 10.2168 40.932 8.80914C37.3145 5.14521 33.2018 2.16795 28.3548 0C25.474 0.323721 22.6517 1.03493 20.0538 2.07476C25.0178 5.14276 28.7524 9.28246 32.4382 13.6748H32.4358Z" fill="#002B6A"/>
<path d="M61.1223 45.2523C63.3763 40.8429 64.8472 32.2937 63.4616 26.1626C62.2493 26.6727 61.0223 27.222 59.7734 27.8204C61.4638 33.3114 61.8761 39.1164 61.1223 45.2499V45.2523Z" fill="#021F4B"/>
<path d="M54.402 30.6628C51.7529 32.1147 48.9403 33.8559 46.2985 35.5064C50.0478 42.5155 53.2335 52.9138 53.2579 55.9769C54.7508 54.6378 56.0241 53.4484 57.2438 51.8543C58.0366 46.8783 57.3487 38.5523 54.402 30.6653V30.6628Z" fill="#021F4B"/>
<path d="M83.4084 28.3798H79.3595V30.5403H83.0483V33.3865H79.3595V38.4659H76V25.5337H83.4084V28.3798Z" fill="#021F4B"/>
<path d="M85.6761 32C85.6761 31.0385 85.8524 30.146 86.2086 29.3147C86.561 28.4873 87.0552 27.7633 87.6834 27.1466C88.3116 26.5299 89.0624 26.0472 89.9396 25.6986C90.813 25.35 91.7783 25.1738 92.8317 25.1738C93.8852 25.1738 94.8313 25.35 95.7124 25.6986C96.5934 26.0472 97.3519 26.5299 97.9839 27.1466C98.6198 27.7633 99.114 28.4873 99.4664 29.3147C99.8188 30.146 99.9988 31.0385 99.9988 32C99.9988 32.9615 99.8226 33.854 99.4664 34.6853C99.1101 35.5165 98.616 36.2367 97.9839 36.8572C97.348 37.4739 96.5934 37.9566 95.7124 38.3052C94.8313 38.6538 93.8698 38.83 92.8317 38.83C91.7936 38.83 90.8168 38.6538 89.9396 38.3052C89.0662 37.9566 88.3116 37.4739 87.6834 36.8572C87.0552 36.2405 86.561 35.5165 86.2086 34.6853C85.8524 33.8578 85.6761 32.9615 85.6761 32ZM89.1927 32C89.1927 32.5133 89.2884 32.9883 89.4838 33.425C89.6791 33.8617 89.9396 34.2371 90.2729 34.5588C90.6062 34.8806 90.9892 35.1296 91.4297 35.3058C91.8703 35.482 92.3376 35.5701 92.8279 35.5701C93.3182 35.5701 93.7856 35.482 94.2261 35.3058C94.6666 35.1296 95.0535 34.8806 95.3944 34.5588C95.7315 34.2371 95.9958 33.8617 96.1912 33.425C96.3866 32.9921 96.4823 32.5171 96.4823 32C96.4823 31.4829 96.3866 31.0117 96.1912 30.575C95.9958 30.1421 95.7315 29.7629 95.3944 29.4411C95.0573 29.1232 94.6666 28.8742 94.2261 28.6942C93.7856 28.518 93.3182 28.4299 92.8279 28.4299C92.3376 28.4299 91.8703 28.518 91.4297 28.6942C90.9892 28.8704 90.6023 29.1194 90.2729 29.4411C89.9396 29.7629 89.6791 30.1383 89.4838 30.575C89.2884 31.0117 89.1927 31.4829 89.1927 32Z" fill="#021F4B"/>
<path d="M102.401 32C102.401 31.0385 102.577 30.146 102.933 29.3147C103.286 28.4873 103.78 27.7633 104.408 27.1466C105.036 26.5299 105.787 26.0472 106.664 25.6986C107.537 25.35 108.503 25.1738 109.556 25.1738C110.61 25.1738 111.556 25.35 112.437 25.6986C113.318 26.0472 114.076 26.5299 114.708 27.1466C115.344 27.7633 115.838 28.4873 116.191 29.3147C116.543 30.146 116.723 31.0385 116.723 32C116.723 32.9615 116.547 33.854 116.191 34.6853C115.835 35.5165 115.34 36.2367 114.708 36.8572C114.073 37.4739 113.318 37.9566 112.437 38.3052C111.556 38.6538 110.594 38.83 109.556 38.83C108.518 38.83 107.541 38.6538 106.664 38.3052C105.791 37.9566 105.036 37.4739 104.408 36.8572C103.78 36.2405 103.286 35.5165 102.933 34.6853C102.577 33.8578 102.401 32.9615 102.401 32ZM105.917 32C105.917 32.5133 106.013 32.9883 106.208 33.425C106.404 33.8617 106.664 34.2371 106.997 34.5588C107.331 34.8806 107.714 35.1296 108.154 35.3058C108.595 35.482 109.062 35.5701 109.552 35.5701C110.043 35.5701 110.51 35.482 110.951 35.3058C111.391 35.1296 111.778 34.8806 112.119 34.5588C112.456 34.2371 112.72 33.8617 112.916 33.425C113.111 32.9921 113.207 32.5171 113.207 32C113.207 31.4829 113.111 31.0117 112.916 30.575C112.72 30.1421 112.456 29.7629 112.119 29.4411C111.782 29.1232 111.391 28.8742 110.951 28.6942C110.51 28.518 110.043 28.4299 109.552 28.4299C109.062 28.4299 108.595 28.518 108.154 28.6942C107.714 28.8704 107.327 29.1194 106.997 29.4411C106.664 29.7629 106.404 30.1383 106.208 30.575C106.013 31.0117 105.917 31.4829 105.917 32Z" fill="#021F4B"/>
<path d="M124.476 28.3798V38.4659H121.113V28.3798H118.351V25.5337H127.238V28.3798H124.476Z" fill="#021F4B"/>
<path d="M129.587 25.5337H134.597C135.784 25.5337 136.689 25.821 137.309 26.3917C137.926 26.9625 138.236 27.7861 138.236 28.8625C138.236 29.5137 138.117 30.0538 137.884 30.4829C137.65 30.9119 137.29 31.2758 136.811 31.5707C137.29 31.6627 137.7 31.8006 138.037 31.9921C138.374 32.1798 138.65 32.4135 138.86 32.6855C139.071 32.9613 139.224 33.2677 139.316 33.6125C139.408 33.9572 139.454 34.3211 139.454 34.7118C139.454 35.3171 139.347 35.8572 139.136 36.3245C138.926 36.7919 138.627 37.1864 138.244 37.5082C137.861 37.83 137.393 38.0675 136.846 38.2284C136.298 38.3892 135.677 38.4697 134.992 38.4697H129.587V25.5375V25.5337ZM132.95 30.6131H133.567C134.62 30.6131 135.145 30.1955 135.145 29.3605C135.145 28.5254 134.62 28.1079 133.567 28.1079H132.95V30.6131ZM132.95 35.861H133.689C134.536 35.861 135.141 35.7538 135.509 35.5354C135.876 35.3171 136.056 34.9685 136.056 34.4897C136.056 34.0108 135.873 33.6623 135.509 33.4439C135.141 33.2256 134.536 33.1183 133.689 33.1183H132.95V35.861Z" fill="#021F4B"/>
<path d="M150.054 36.2212H145.25L144.476 38.4698H140.891L145.813 25.5376H149.483L154.405 38.4698H150.82L150.046 36.2212H150.054ZM149.161 33.6662L147.652 29.3605L146.142 33.6662H149.161Z" fill="#021F4B"/>
<path d="M160.105 25.5337V35.6197H164.135V38.4659H156.742V25.5337H160.105Z" fill="#021F4B"/>
<path d="M170.088 25.5337V35.6197H174.117V38.4659H166.724V25.5337H170.088Z" fill="#021F4B"/>
<path d="M176.263 36.8188C176.263 36.543 176.312 36.2863 176.416 36.0373C176.519 35.7922 176.661 35.5776 176.845 35.3938C177.029 35.2099 177.243 35.0682 177.488 34.9647C177.734 34.8613 177.994 34.8115 178.27 34.8115C178.546 34.8115 178.802 34.8613 179.051 34.9647C179.296 35.0682 179.511 35.2099 179.695 35.3938C179.879 35.5776 180.02 35.7922 180.124 36.0373C180.227 36.2825 180.277 36.543 180.277 36.8188C180.277 37.0946 180.227 37.3551 180.124 37.6002C180.02 37.8454 179.879 38.0599 179.695 38.2438C179.511 38.4276 179.296 38.5694 179.051 38.6728C178.806 38.7762 178.546 38.826 178.27 38.826C177.994 38.826 177.734 38.7762 177.488 38.6728C177.243 38.5694 177.029 38.4276 176.845 38.2438C176.661 38.0599 176.519 37.8454 176.416 37.6002C176.312 37.3551 176.263 37.0946 176.263 36.8188Z" fill="#021F4B"/>
<path d="M186.758 30.8697L190.857 25.5337H195.01L189.88 31.6588L195.488 38.4697H191.133L186.758 32.8617V38.4697H183.395V25.5375H186.758V30.8736V30.8697Z" fill="#021F4B"/>
<path d="M203.399 31.23H210.072C210.072 31.9156 210.045 32.54 209.987 33.0993C209.93 33.6586 209.815 34.1795 209.643 34.6584C209.401 35.3325 209.076 35.9301 208.666 36.4511C208.256 36.972 207.769 37.4049 207.218 37.7535C206.662 38.1021 206.053 38.3664 205.391 38.5503C204.728 38.7341 204.031 38.8261 203.299 38.8261C202.292 38.8261 201.376 38.6613 200.545 38.3281C199.717 37.9948 199.005 37.5313 198.411 36.9299C197.817 36.3285 197.354 35.6084 197.021 34.7694C196.687 33.9305 196.523 32.9997 196.523 31.9808C196.523 30.9618 196.687 30.0501 197.013 29.2112C197.339 28.3723 197.802 27.6522 198.404 27.0584C199.005 26.4647 199.729 26.0012 200.575 25.6679C201.422 25.3346 202.364 25.1699 203.406 25.1699C204.755 25.1699 205.938 25.461 206.957 26.0433C207.976 26.6256 208.781 27.5296 209.374 28.7554L206.184 30.0769C205.885 29.3683 205.502 28.8588 205.027 28.5485C204.552 28.2382 204.012 28.085 203.406 28.085C202.905 28.085 202.445 28.1808 202.035 28.3685C201.625 28.5562 201.273 28.8243 200.982 29.1729C200.69 29.5215 200.461 29.9429 200.296 30.4332C200.131 30.9235 200.047 31.4751 200.047 32.0803C200.047 32.6281 200.12 33.1376 200.261 33.6088C200.403 34.0761 200.618 34.4822 200.905 34.8269C201.192 35.1717 201.545 35.436 201.97 35.6237C202.391 35.8114 202.885 35.9071 203.445 35.9071C203.778 35.9071 204.096 35.8688 204.406 35.7961C204.716 35.7233 204.992 35.6007 205.237 35.436C205.483 35.2713 205.686 35.0567 205.846 34.7924C206.007 34.5281 206.115 34.2102 206.172 33.8309H203.41V31.2223L203.399 31.23Z" fill="#021F4B"/>
</g>
<defs>
<clipPath id="clip0_1903_7946">
<rect width="210.072" height="64" fill="white"/>
</clipPath>
</defs>
</svg>
