<svg width="190" height="45" viewBox="0 0 190 45" fill="none" xmlns="http://www.w3.org/2000/svg">
<path d="M13.0474 42.7709C12.5697 42.0682 12.8791 41.5962 13.0732 41.5283C13.2674 41.462 14.6567 42.1632 15.5379 42.1918C16.4191 42.2205 17.3867 41.8842 17.6082 41.8329C17.8311 41.7817 17.9919 41.8163 17.9919 41.8163C17.9919 41.8163 18.3513 40.6868 18.4181 39.9871C18.4848 39.2874 18.4469 37.048 18.6517 36.1552C18.8564 35.2625 19.0536 33.9294 19.09 33.5147C19.1249 33.0985 19.1249 32.4184 19.2947 31.9418C19.4646 31.4638 20.7083 29.8577 20.7083 29.8577C20.7083 29.8577 20.6294 29.5697 20.7204 29.4853C20.8114 29.4008 22.9894 26.8583 23.1259 26.7316C23.2624 26.6049 23.1411 26.2717 23.3443 26.1028C23.5476 25.9339 23.7751 25.7439 23.7781 25.6564C23.7811 25.5689 23.4839 25.1859 23.5991 25.0366C23.7144 24.8873 23.8888 24.2555 23.907 23.708C23.9252 23.1606 23.1714 21.2047 22.9591 19.5534C22.7468 17.9007 23.0107 13.8064 22.8696 13.3857C22.7286 12.9649 21.4121 12.0224 21.1087 11.8595C20.8054 11.6967 17.9904 9.34717 17.772 9.27479C17.5536 9.2024 16.002 8.71381 15.3437 7.92511C14.6855 7.13642 12.4529 5.17901 12.0631 4.96939C11.6733 4.75978 11.2062 4.83216 10.968 4.69343C10.8058 4.59842 10.4478 4.34507 10.2324 4.14451L0.411785 21.0509C-0.137262 21.9964 -0.137262 23.1606 0.411785 24.1047L11.6581 43.4721C12.2072 44.4177 13.2203 44.9998 14.3184 44.9998H17.0015C16.8574 44.9033 16.73 44.8203 16.6314 44.7705C16.2264 44.567 13.5252 43.4721 13.0474 42.7694V42.7709Z" fill="#002B6B"/>
<path d="M50.9865 20.9766L39.7107 1.53369C39.1602 0.584408 38.1444 0 37.0434 0H14.4932C13.3922 0 12.3764 0.584408 11.8259 1.53369L11.3561 2.34369C11.4823 2.31795 11.5978 2.30735 11.6845 2.32098C12.051 2.377 12.3658 3.63514 13.3056 4.22258C14.2453 4.81001 17.0449 5.8244 17.711 6.22713C18.377 6.62986 18.6873 7.08103 18.6873 7.08103C18.6873 7.08103 21.2329 8.67377 21.4199 8.78278C21.6085 8.89179 22.7475 8.79489 23.5656 9.04168C24.3837 9.28846 24.9388 9.89255 25.1137 9.97128C25.2885 10.05 26.4382 10.0727 26.4838 10.0152C26.5294 9.95765 26.4442 8.97203 26.4442 8.97203C26.4442 8.97203 26.1203 8.94781 26.1705 8.3316C26.2192 7.71692 26.4716 7.66544 26.4716 7.66544C26.4716 7.66544 26.6389 5.20366 28.8332 5.31721C31.0276 5.43076 30.7356 8.08028 30.5242 8.71919C30.7554 8.85848 30.5349 9.30663 30.3798 9.52162C30.2247 9.73661 29.9692 9.90466 29.7928 9.90012C29.7928 9.90012 29.6803 10.2044 29.6772 10.3074C29.6742 10.4103 30.2231 11.2355 30.6581 11.455C31.093 11.6745 32.9391 12.5406 33.9093 14.0258C34.367 14.4664 36.0093 16.1636 36.3135 16.3044C36.6191 16.4467 38.6082 17.4051 39.5297 18.1394C40.4497 18.8737 42.0267 20.2893 42.4631 20.4937C42.8995 20.6981 44.7487 21.8729 45.0072 22.1015C45.2657 22.3302 45.5805 23.1038 45.6139 23.4278C45.6474 23.7518 45.5972 24.4255 45.4193 24.4195C45.2429 24.4134 44.8658 23.7412 44.7091 23.5459C44.5525 23.3506 43.6355 22.5421 43.4956 22.7283C43.3573 22.9146 43.8043 23.237 43.8697 23.4899C43.9351 23.7412 43.7572 24.2212 43.558 24.0228C43.3588 23.8245 43.0805 23.2582 42.7049 23.0266C42.3293 22.795 42.2593 22.2196 41.9141 21.9441C41.5689 21.6685 39.4461 20.7344 38.2964 20.2287C37.1468 19.723 35.8223 18.7117 35.5638 18.4967C35.3053 18.2832 33.1885 17.5837 32.1012 16.5224C31.461 17.6322 30.7949 19.0796 30.7691 19.8729C30.7432 20.6663 32.1985 22.6935 32.3825 22.9055C32.568 23.1174 32.825 22.9191 33.0531 23.1613C33.2812 23.4036 33.2006 23.6216 33.2873 23.6973C33.374 23.773 34.3883 24.3347 34.6133 24.6648C34.8384 24.9948 34.8871 25.3491 34.8871 25.3491C34.8871 25.3491 36.8792 26.7041 38.2113 28.421C39.1784 27.2189 39.7289 26.633 40.3402 26.4028C40.9531 26.1727 42.2639 26.2136 42.8661 25.823C42.7809 25.2764 43.3223 24.4573 43.8256 24.3998C44.2256 24.368 45.0407 24.8934 45.582 24.9403C46.1234 24.9872 47.2639 24.8177 48.1048 25.2552C48.7967 25.6156 49.3183 26.2969 49.5038 26.6027L50.988 24.044C51.5385 23.0947 51.5385 21.9259 50.988 20.9781L50.9865 20.9766Z" fill="#262626"/>
<path d="M44.1806 27.4145C43.0521 28.1735 40.0261 30.921 39.7662 31.1031C39.5064 31.2853 39.2696 31.6906 38.3316 31.6465C37.3937 31.6025 36.7479 31.2731 36.2943 30.9938C35.8407 30.7145 33.4974 29.4182 33.4974 29.4182C33.4974 29.4182 32.8932 29.6793 32.7286 29.6884C32.5641 29.6975 32.1874 29.3468 31.8661 29.1753C31.5432 29.0038 31.2633 28.8915 30.6836 28.8581C30.1024 28.8247 29.4028 28.3541 29.0261 28.4497C28.651 28.5438 25.0591 32.1414 24.8931 32.2249C24.727 32.3084 23.746 32.1885 23.746 32.1885C23.746 32.1885 22.6082 33.2267 22.1777 33.6548C22.2023 35.6585 22.0762 37.2448 21.7887 37.8535C21.7149 38.0098 21.6026 38.2193 21.475 38.4546C21.8963 38.2481 22.3699 38.1328 22.8711 38.1328C24.6102 38.1328 26.0186 39.5247 26.0186 41.24C26.0186 42.9553 24.6086 44.3473 22.8711 44.3473C21.5473 44.3473 20.4156 43.5412 19.9497 42.3982C19.9113 42.5242 19.8867 42.6107 19.8897 42.6365C19.9005 42.7549 19.9559 42.9189 19.9497 43.095C19.9451 43.2604 19.8083 44.622 19.7221 45H37.0247C38.1379 45 39.165 44.4141 39.7216 43.4623L49.0087 27.5815C48.4859 27.5815 45.8289 26.9363 44.1837 27.4114L44.1806 27.4145Z" fill="#002B6B"/>
<path d="M60.4869 16.6925V8.70629H62.424V15.0672H65.4977V8.70629H67.4315V15.0672H68.2979V18.259H66.7034V16.6925H60.4869Z" fill="#181818"/>
<path d="M69.9349 16.6925V8.70629H75.3542V10.3316H71.8127V11.8427H75.1598V13.3864H71.8127V15.0443H75.5584V16.6892H69.9349V16.6925Z" fill="#181818"/>
<path d="M82.4572 16.6925V13.3538H79.3144V16.6925H77.3674V8.70629H79.3144V11.7284H82.4572V8.70629H84.4042V16.6925H82.4572Z" fill="#181818"/>
<path d="M90.0409 10.3561V16.6941H88.0939V10.3561H85.8175V8.71122H92.3174V10.3561H90.0409Z" fill="#181818"/>
<path d="M99.8418 11.1688C99.8418 11.6355 99.7561 12.0271 99.5815 12.3469C99.4069 12.6668 99.173 12.9246 98.8765 13.1204C98.58 13.3163 98.2407 13.4599 97.8519 13.548C97.4632 13.6361 97.0613 13.685 96.6462 13.685H95.6776V16.6974H93.7306V8.71122H96.689C97.1304 8.71122 97.5423 8.75365 97.9244 8.84177C98.3066 8.92662 98.6426 9.06696 98.9259 9.25952C99.2092 9.45207 99.4332 9.70338 99.598 10.0167C99.7627 10.33 99.8418 10.7151 99.8418 11.172V11.1688ZM97.8947 11.1786C97.8947 10.9893 97.8552 10.8359 97.7794 10.7151C97.7037 10.5944 97.6015 10.4997 97.4731 10.4344C97.3446 10.3692 97.1996 10.3202 97.0349 10.2974C96.8702 10.2745 96.7022 10.2647 96.5276 10.2647H95.6743V12.1479H96.4946C96.6758 12.1479 96.8504 12.1315 97.0184 12.1022C97.1864 12.0728 97.3347 12.0206 97.4665 11.9455C97.5983 11.8705 97.7037 11.7693 97.7794 11.6453C97.8552 11.5212 97.8947 11.3646 97.8947 11.1786Z" fill="#181818"/>
<path d="M102.665 16.6925H100.547L103.927 8.70629H105.818L109.165 16.6925H107.001L106.375 15.1259H103.255L102.662 16.6925H102.665ZM103.815 13.5789H105.841L104.839 10.8375L103.815 13.5789Z" fill="#181818"/>
<path d="M109.373 16.6925L112.502 8.70629H114.495L117.694 16.6925H115.566L113.517 11.3694L111.458 16.6925H109.373Z" fill="#181818"/>
<path d="M118.887 8.71122H120.824V11.6224H121.552C122.016 11.6224 122.455 11.6648 122.866 11.7464C123.278 11.828 123.637 11.9618 123.944 12.1479C124.247 12.3306 124.487 12.5754 124.665 12.8822C124.843 13.189 124.932 13.5643 124.932 14.0147C124.932 14.4651 124.843 14.873 124.665 15.2092C124.487 15.5486 124.243 15.826 123.93 16.0447C123.617 16.2633 123.258 16.4265 122.843 16.5342C122.428 16.6419 121.987 16.6974 121.516 16.6974H118.887V8.71122ZM120.824 13.2445V15.0721H121.7C122.184 15.0721 122.52 14.9872 122.702 14.8175C122.883 14.6478 122.975 14.4226 122.975 14.1354C122.975 13.8482 122.883 13.6296 122.702 13.4762C122.52 13.3228 122.184 13.2445 121.7 13.2445H120.824Z" fill="#181818"/>
<path d="M131.831 16.6925V13.3538H128.688V16.6925H126.741V8.70629H128.688V11.7284H131.831V8.70629H133.778V16.6925H131.831Z" fill="#181818"/>
<path d="M137.092 16.6925H134.973L138.353 8.70629H140.244L143.592 16.6925H141.427L140.801 15.1259H137.681L137.088 16.6925H137.092ZM138.241 13.5789H140.268L139.266 10.8375L138.241 13.5789Z" fill="#181818"/>
<path d="M146.23 13.0747C145.684 12.9834 145.242 12.781 144.909 12.4612C144.577 12.1413 144.409 11.7138 144.409 11.1818C144.409 10.3985 144.715 9.79149 145.324 9.36069C145.934 8.92662 146.84 8.71122 148.039 8.71122H150.988V16.6974H149.054V13.7993H148.359C147.789 13.7993 147.308 14.0473 146.912 14.5434C146.517 15.0395 146.257 15.7575 146.128 16.6974H144.01C144.04 16.2242 144.125 15.7966 144.26 15.4115C144.399 15.0297 144.563 14.6903 144.761 14.3965C144.959 14.1028 145.183 13.8482 145.44 13.6361C145.693 13.4207 145.957 13.2445 146.23 13.1009V13.0747ZM149.054 10.3333H148.21C147.604 10.3333 147.166 10.4116 146.896 10.5715C146.626 10.7282 146.491 10.9664 146.491 11.283C146.491 11.4037 146.52 11.518 146.576 11.6257C146.632 11.7334 146.728 11.828 146.86 11.9064C146.991 11.9847 147.169 12.05 147.393 12.0989C147.617 12.1479 147.897 12.1707 148.23 12.1707H149.05V10.3333H149.054Z" fill="#181818"/>
<path d="M155.557 16.6925L158.687 8.70629H160.68L163.879 16.6925H161.751L159.702 11.3694L157.642 16.6925H155.557Z" fill="#181818"/>
<path d="M167.041 14.0343L170.388 8.71122H172.586V16.6974H170.649V11.4429H170.616L167.259 16.6974H165.074V8.71122H167.012V14.0343H167.045H167.041Z" fill="#181818"/>
<path d="M179.85 8.71122V10.392H176.731V16.6974H174.774V8.71122H179.85Z" fill="#181818"/>
<path d="M182.673 16.6925H180.555L183.935 8.70629H185.826L189.173 16.6925H187.009L186.383 15.1259H183.263L182.67 16.6925H182.673ZM183.823 13.5789H185.849L184.847 10.8375L183.823 13.5789Z" fill="#181818"/>
<path d="M105.91 32.1856H60.4974L59.6599 30.5492H105.069L105.91 32.1856Z" fill="#002B6B"/>
<path d="M119.654 36.2939L118.883 34.3585H115.035L114.304 36.2939H111.691L115.862 26.4409H118.194L122.326 36.2939H119.654ZM116.985 29.0714L115.72 32.4526H118.221L116.985 29.0714Z" fill="#181818"/>
<path d="M126.17 30.5042H130.018V32.4656H126.17V36.2939H123.795V26.4409H130.341V28.4709H126.17V30.5042Z" fill="#181818"/>
<path d="M132.532 36.2939V26.4409H134.947V34.2182H138.795V36.2906H132.529L132.532 36.2939Z" fill="#181818"/>
<path d="M189.177 32.1856H144.576L145.398 30.5492H190L189.177 32.1856Z" fill="#002B6B"/>
</svg>
