<svg width="21" height="19" viewBox="0 0 21 19" fill="none" xmlns="http://www.w3.org/2000/svg">
<path fill-rule="evenodd" clip-rule="evenodd" d="M4.78831 11.02C4.83128 11.0343 4.87546 11.0447 4.92031 11.051C5.20324 11.7176 5.48457 12.385 5.76431 13.053C6.26731 14.255 6.77431 15.493 6.88531 15.849C7.02431 16.287 7.17031 16.585 7.33031 16.789C7.41331 16.893 7.50831 16.985 7.62031 17.055C7.67866 17.0915 7.74109 17.121 7.80631 17.143C8.12631 17.263 8.41831 17.213 8.60131 17.152C8.7087 17.1153 8.81089 17.0649 8.90531 17.002L8.91031 17L11.7363 15.238L15.0013 17.74C15.0493 17.777 15.1013 17.808 15.1573 17.833C15.5493 18.003 15.9293 18.063 16.2873 18.015C16.6433 17.965 16.9263 17.816 17.1373 17.647C17.3796 17.4517 17.5728 17.2024 17.7013 16.919L17.7103 16.897L17.7133 16.889L17.7153 16.885V16.883L17.7163 16.882C17.7337 16.839 17.7471 16.7945 17.7563 16.749L20.7363 1.72399C20.7457 1.67589 20.7504 1.62699 20.7503 1.57799C20.7503 1.13799 20.5843 0.718986 20.1953 0.465986C19.8613 0.248986 19.4903 0.238986 19.2553 0.256986C19.0033 0.276986 18.7693 0.338986 18.6123 0.388986C18.5244 0.416841 18.4377 0.448199 18.3523 0.482986L18.3413 0.487986L1.62731 7.04399L1.62531 7.04499C1.56876 7.06579 1.51305 7.0888 1.45831 7.11399C1.32578 7.17357 1.19864 7.2445 1.07831 7.32599C0.851314 7.48099 0.328314 7.90699 0.417314 8.61099C0.487314 9.17099 0.871314 9.51599 1.10631 9.68199C1.23431 9.77299 1.35631 9.83799 1.44631 9.88099C1.48631 9.90099 1.57231 9.93499 1.60931 9.95099L1.61931 9.95399L4.78831 11.02ZM18.9263 1.86799H18.9243C18.9157 1.87181 18.907 1.87548 18.8983 1.87899L2.16431 8.44399C2.15571 8.44747 2.14704 8.4508 2.13831 8.45399L2.12831 8.45699C2.09775 8.469 2.06772 8.48235 2.03831 8.49699C2.06615 8.51293 2.09486 8.52728 2.12431 8.53999L5.26631 9.59799C5.32246 9.61691 5.37617 9.64242 5.42631 9.67399L15.8033 3.59899L15.8133 3.59399C15.8536 3.56949 15.895 3.5468 15.9373 3.52599C16.0093 3.48899 16.1243 3.43499 16.2543 3.39499C16.3443 3.36699 16.6113 3.28799 16.8993 3.38099C17.0521 3.42914 17.1882 3.51927 17.2922 3.64111C17.3962 3.76294 17.4638 3.91156 17.4873 4.06999C17.5246 4.20874 17.5256 4.35472 17.4903 4.49399C17.4203 4.76899 17.2283 4.98299 17.0523 5.14699C16.9023 5.28699 14.9573 7.16299 13.0383 9.01499L10.4253 11.535L9.96031 11.985L15.8323 16.487C15.9116 16.5203 15.9977 16.534 16.0833 16.527C16.1265 16.5211 16.1671 16.5031 16.2003 16.475C16.2409 16.4408 16.2756 16.4002 16.3033 16.355L16.3053 16.354L19.1953 1.78099C19.1043 1.80288 19.015 1.83163 18.9283 1.86699L18.9263 1.86799ZM10.4653 14.262L9.29331 13.364L9.00931 15.169L10.4653 14.262ZM8.21831 11.582L9.38332 10.457L11.9963 7.93499L12.9693 6.99699L6.44931 10.814L6.48431 10.896C6.89552 11.8674 7.30219 12.8408 7.70431 13.816L7.98731 12.016C8.01292 11.849 8.09435 11.6967 8.21831 11.582Z" fill="#181818"/>
</svg>
