<svg width="20" height="16" viewBox="0 0 20 16" fill="none" xmlns="http://www.w3.org/2000/svg">
<path d="M10 0C10.855 0 11.732 0.0220001 12.582 0.0580001L13.586 0.106L14.547 0.163L15.447 0.224L16.269 0.288C17.161 0.356278 18.0004 0.736947 18.6395 1.36304C19.2786 1.98913 19.6764 2.82054 19.763 3.711L19.803 4.136L19.878 5.046C19.948 5.989 20 7.017 20 8C20 8.983 19.948 10.011 19.878 10.954L19.803 11.864C19.79 12.01 19.777 12.151 19.763 12.289C19.6764 13.1796 19.2784 14.0112 18.6391 14.6373C17.9999 15.2634 17.1602 15.6439 16.268 15.712L15.448 15.775L14.548 15.837L13.586 15.894L12.582 15.942C11.7218 15.9794 10.861 15.9987 10 16C9.13902 15.9987 8.27817 15.9794 7.418 15.942L6.414 15.894L5.453 15.837L4.553 15.775L3.731 15.712C2.83895 15.6437 1.99955 15.2631 1.36047 14.637C0.721394 14.0109 0.323574 13.1795 0.237 12.289L0.197 11.864L0.122 10.954C0.0455376 9.97114 0.00484402 8.98582 0 8C0 7.017 0.052 5.989 0.122 5.046L0.197 4.136C0.21 3.99 0.223 3.849 0.237 3.711C0.323541 2.8207 0.721217 1.98942 1.36009 1.36334C1.99897 0.737271 2.83813 0.356503 3.73 0.288L4.551 0.224L5.451 0.163L6.413 0.106L7.417 0.0580001C8.2775 0.0206329 9.13869 0.00129529 10 0ZM10 2C9.175 2 8.326 2.022 7.5 2.056L6.522 2.103L5.583 2.158L4.701 2.218L3.893 2.281C3.46833 2.31113 3.06804 2.49065 2.76309 2.78773C2.45814 3.08481 2.26822 3.48026 2.227 3.904C2.11 5.113 2 6.618 2 8C2 9.382 2.11 10.887 2.227 12.096C2.312 12.968 3.004 13.646 3.893 13.719L4.701 13.781L5.583 13.841L6.522 13.897L7.5 13.944C8.326 13.978 9.175 14 10 14C10.825 14 11.674 13.978 12.5 13.944L13.478 13.897L14.417 13.842L15.299 13.782L16.107 13.719C16.5317 13.6889 16.932 13.5094 17.2369 13.2123C17.5419 12.9152 17.7318 12.5197 17.773 12.096C17.89 10.887 18 9.382 18 8C18 6.618 17.89 5.113 17.773 3.904C17.7318 3.48026 17.5419 3.08481 17.2369 2.78773C16.932 2.49065 16.5317 2.31113 16.107 2.281L15.299 2.219L14.417 2.159L13.478 2.103L12.5 2.056C11.6671 2.02017 10.8336 2.0015 10 2ZM8 5.575C7.99994 5.47726 8.02375 5.38099 8.06937 5.29455C8.11498 5.20812 8.18103 5.13413 8.26175 5.07903C8.34248 5.02394 8.43544 4.98939 8.53256 4.97841C8.62968 4.96742 8.72801 4.98033 8.819 5.016L8.9 5.056L13.1 7.48C13.1836 7.52826 13.2544 7.59599 13.3063 7.67744C13.3581 7.75889 13.3896 7.85165 13.3979 7.94785C13.4062 8.04405 13.3912 8.14084 13.3542 8.23C13.3171 8.31916 13.2591 8.39806 13.185 8.46L13.1 8.52L8.9 10.945C8.81536 10.994 8.72003 11.0216 8.62229 11.0253C8.52456 11.0291 8.4274 11.0089 8.33926 10.9665C8.25112 10.9241 8.17468 10.8608 8.1166 10.7821C8.05851 10.7034 8.02054 10.6117 8.006 10.515L8 10.425V5.575Z" fill="#181818"/>
</svg>
