<svg width="20" height="21" viewBox="0 0 20 21" fill="none" xmlns="http://www.w3.org/2000/svg">
  <path d="M16.031 15.117L19.6067 18.6919C19.9973 19.0824 19.9971 19.7159 19.6065 20.1065C19.2159 20.4971 18.5824 20.4973 18.1919 20.1067L14.617 16.531C13.0237 17.8082 11.042 18.5029 9 18.5C4.032 18.5 0 14.468 0 9.5C0 4.532 4.032 0.5 9 0.5C13.968 0.5 18 4.532 18 9.5C18.0029 11.542 17.3082 13.5237 16.031 15.117ZM14.025 14.375C15.2941 13.0699 16.0029 11.3204 16 9.5C16 5.633 12.867 2.5 9 2.5C5.133 2.5 2 5.633 2 9.5C2 13.367 5.133 16.5 9 16.5C10.8204 16.5029 12.5699 15.7941 13.875 14.525L14.025 14.375Z" fill="black"/>
</svg>
