<svg width="80" height="80" viewBox="0 0 80 80" fill="none" xmlns="http://www.w3.org/2000/svg">
<g id="youtube icon" clip-path="url(#clip0_2979_1280)">
<path id="Vector" d="M78.4064 20.6184C77.9541 18.9164 77.0627 17.3631 75.8215 16.1139C74.5802 14.8647 73.0327 13.9634 71.3336 13.5002C65.0791 11.8184 40.0791 11.8184 40.0791 11.8184C40.0791 11.8184 15.0791 11.8184 8.82456 13.5002C7.12554 13.9634 5.57797 14.8647 4.33673 16.1139C3.09549 17.3631 2.20412 18.9164 1.75183 20.6184C0.0791018 26.9002 0.0791016 40.0002 0.0791016 40.0002C0.0791016 40.0002 0.0791018 53.1002 1.75183 59.382C2.20412 61.0839 3.09549 62.6373 4.33673 63.8865C5.57797 65.1357 7.12554 66.037 8.82456 66.5002C15.0791 68.182 40.0791 68.182 40.0791 68.182C40.0791 68.182 65.0791 68.182 71.3336 66.5002C73.0327 66.037 74.5802 65.1357 75.8215 63.8865C77.0627 62.6373 77.9541 61.0839 78.4064 59.382C80.0791 53.1002 80.0791 40.0002 80.0791 40.0002C80.0791 40.0002 80.0791 26.9002 78.4064 20.6184Z" fill="#FF0302"/>
<path id="Vector_2" d="M31.8975 51.8954V28.1045L52.8065 39.9999L31.8975 51.8954Z" fill="#FEFEFE"/>
</g>
<defs>
<clipPath id="clip0_2979_1280">
<rect width="80" height="80" fill="white"/>
</clipPath>
</defs>
</svg>
