<svg width="32" height="32" viewBox="0 0 32 32" fill="none" xmlns="http://www.w3.org/2000/svg">
<path d="M24.5834 6.6051H21.9994V4.72777C21.9994 4.37843 21.6927 4.0451 21.3327 4.0611C21.1569 4.06418 20.9891 4.13541 20.8647 4.25977C20.7403 4.38414 20.6691 4.55192 20.666 4.72777V6.6051H11.3327V4.72777C11.3327 4.37843 11.026 4.0451 10.666 4.0611C10.4902 4.06418 10.3224 4.13541 10.198 4.25977C10.0737 4.38414 10.0024 4.55192 9.99936 4.72777V6.6051H7.41536C6.53163 6.60616 5.6844 6.95769 5.05951 7.58258C4.43462 8.20747 4.08309 9.0547 4.08203 9.93843V24.6051C4.08203 26.4438 5.57803 27.9384 7.41536 27.9384H24.582C26.4207 27.9384 27.9154 26.4438 27.9154 24.6051V9.93843C27.9147 9.05483 27.5634 8.20759 26.9387 7.58266C26.3141 6.95773 25.467 6.60616 24.5834 6.6051ZM7.41536 7.93843H9.99936V8.72777C9.99936 9.0771 10.306 9.41043 10.666 9.39443C11.0274 9.37843 11.3327 9.1011 11.3327 8.72777V7.93843H20.666V8.72777C20.666 9.0771 20.9727 9.41043 21.3327 9.39443C21.694 9.37843 21.9994 9.1011 21.9994 8.72777V7.93843H24.582C25.6847 7.93843 26.582 8.83577 26.582 9.93843V12.0504H5.41536V9.93843C5.41536 8.83577 6.3127 7.93843 7.41536 7.93843ZM24.5834 26.6051H7.41536C6.3127 26.6051 5.41536 25.7078 5.41536 24.6051V13.3838H26.582V24.6051C26.582 25.1353 26.3715 25.6438 25.9967 26.0188C25.6219 26.3939 25.1136 26.6047 24.5834 26.6051Z" fill="black"/>
</svg>
