<svg width="32" height="32" viewBox="0 0 32 32" fill="none" xmlns="http://www.w3.org/2000/svg">
<path d="M6.15333 25.3332C5.54 25.3332 5.028 25.1278 4.61733 24.7172C4.20578 24.3056 4 23.7932 4 23.1798V8.81984C4 8.2065 4.20578 7.6945 4.61733 7.28384C5.028 6.87228 5.54 6.6665 6.15333 6.6665H25.8467C26.46 6.6665 26.972 6.87228 27.3827 7.28384C27.7942 7.6945 28 8.2065 28 8.81984V23.1798C28 23.7932 27.7947 24.3052 27.384 24.7158C26.9724 25.1274 26.46 25.3332 25.8467 25.3332H6.15333ZM16 16.1532L5.33333 9.17984V23.1798C5.33333 23.4189 5.41022 23.6154 5.564 23.7692C5.71778 23.9229 5.91422 23.9998 6.15333 23.9998H25.8467C26.0858 23.9998 26.2822 23.9229 26.436 23.7692C26.5898 23.6154 26.6667 23.4189 26.6667 23.1798V9.17984L16 16.1532ZM16 14.6665L26.256 7.99984H5.744L16 14.6665ZM5.33333 9.17984V7.99984V23.1798C5.33333 23.4189 5.41022 23.6154 5.564 23.7692C5.71778 23.9229 5.91422 23.9998 6.15333 23.9998H5.33333V9.17984Z" fill="black"/>
</svg>
