<svg width="32" height="32" viewBox="0 0 32 32" fill="none" xmlns="http://www.w3.org/2000/svg">
<path d="M12.6538 16.192H11.8462V17.792H12.6538V16.192ZM22.3462 17.792H23.1538V16.192H22.3462V17.792ZM12.6538 20.9888H11.8462V22.5888H12.6538V20.9888ZM22.3462 22.6H23.1538V21H22.3462V22.6ZM12.6538 11.3952H11.8462V12.9952H12.6538V11.3952ZM19.1154 13H19.9231V11.4H19.1154V13ZM22.3462 5.8L22.918 5.2336L22.6805 5H22.3462V5.8ZM27.1923 10.6H28V10.2688L27.7642 10.0336L27.1923 10.6ZM12.6538 17.792H22.3462V16.192H12.6538V17.792ZM12.6538 22.5888L22.3462 22.6V21L12.6538 20.9888V22.5888ZM12.6538 12.9952L19.1154 13V11.4L12.6538 11.3952V12.9952ZM25.5769 27.4H9.42308V29H25.5769V27.4ZM8.61538 26.6V7.4H7V26.6H8.61538ZM9.42308 6.6H22.3462V5H9.42308V6.6ZM26.3846 10.6V26.6H28V10.6H26.3846ZM21.7743 6.3664L26.6205 11.1664L27.7642 10.0336L22.918 5.2336L21.7743 6.3664ZM9.42308 27.4C9.20886 27.4 9.00342 27.3157 8.85195 27.1657C8.70048 27.0157 8.61538 26.8122 8.61538 26.6H7C7 27.2365 7.25529 27.847 7.7097 28.2971C8.16412 28.7471 8.78044 29 9.42308 29V27.4ZM25.5769 29C26.2196 29 26.8359 28.7471 27.2903 28.2971C27.7447 27.847 28 27.2365 28 26.6H26.3846C26.3846 26.8122 26.2995 27.0157 26.148 27.1657C25.9966 27.3157 25.7911 27.4 25.5769 27.4V29ZM8.61538 7.4C8.61538 7.18783 8.70048 6.98434 8.85195 6.83431C9.00342 6.68429 9.20886 6.6 9.42308 6.6V5C8.78044 5 8.16412 5.25286 7.7097 5.70294C7.25529 6.15303 7 6.76348 7 7.4H8.61538Z" fill="#181818"/>
<path d="M12.6538 16.192H11.8462V17.792H12.6538V16.192ZM22.3462 17.792H23.1538V16.192H22.3462V17.792ZM12.6538 20.9888H11.8462V22.5888H12.6538V20.9888ZM22.3462 22.6H23.1538V21H22.3462V22.6ZM12.6538 11.3952H11.8462V12.9952H12.6538V11.3952ZM19.1154 13H19.9231V11.4H19.1154V13ZM22.3462 5.8L22.918 5.2336L22.6805 5H22.3462V5.8ZM27.1923 10.6H28V10.2688L27.7642 10.0336L27.1923 10.6ZM12.6538 17.792H22.3462V16.192H12.6538V17.792ZM12.6538 22.5888L22.3462 22.6V21L12.6538 20.9888V22.5888ZM12.6538 12.9952L19.1154 13V11.4L12.6538 11.3952V12.9952ZM25.5769 27.4H9.42308V29H25.5769V27.4ZM8.61538 26.6V7.4H7V26.6H8.61538ZM9.42308 6.6H22.3462V5H9.42308V6.6ZM26.3846 10.6V26.6H28V10.6H26.3846ZM21.7743 6.3664L26.6205 11.1664L27.7642 10.0336L22.918 5.2336L21.7743 6.3664ZM9.42308 27.4C9.20886 27.4 9.00342 27.3157 8.85195 27.1657C8.70048 27.0157 8.61538 26.8122 8.61538 26.6H7C7 27.2365 7.25529 27.847 7.7097 28.2971C8.16412 28.7471 8.78044 29 9.42308 29V27.4ZM25.5769 29C26.2196 29 26.8359 28.7471 27.2903 28.2971C27.7447 27.847 28 27.2365 28 26.6H26.3846C26.3846 26.8122 26.2995 27.0157 26.148 27.1657C25.9966 27.3157 25.7911 27.4 25.5769 27.4V29ZM8.61538 7.4C8.61538 7.18783 8.70048 6.98434 8.85195 6.83431C9.00342 6.68429 9.20886 6.6 9.42308 6.6V5C8.78044 5 8.16412 5.25286 7.7097 5.70294C7.25529 6.15303 7 6.76348 7 7.4H8.61538Z" fill="black" fill-opacity="0.2"/>
</svg>
