<svg width="32" height="32" viewBox="0 0 32 32" fill="none" xmlns="http://www.w3.org/2000/svg">
<path d="M8.81935 28C8.20602 28 7.69402 27.7947 7.28335 27.384C6.87179 26.9724 6.66602 26.46 6.66602 25.8467V11.4867C6.66602 10.8733 6.87179 10.3613 7.28335 9.95067C7.69402 9.53911 8.20602 9.33333 8.81935 9.33333H11.3327V8.66667C11.3327 7.37067 11.7865 6.26889 12.694 5.36133C13.6016 4.45378 14.7033 4 15.9993 4C17.2953 4 18.3971 4.45378 19.3047 5.36133C20.2122 6.26889 20.666 7.37067 20.666 8.66667V9.33333H23.1793C23.7927 9.33333 24.3047 9.53911 24.7153 9.95067C25.1269 10.3613 25.3327 10.8733 25.3327 11.4867V25.8467C25.3327 26.46 25.1273 26.972 24.7167 27.3827C24.3051 27.7942 23.7927 28 23.1793 28H8.81935ZM8.81935 26.6667H23.1793C23.3838 26.6667 23.5718 26.5813 23.7433 26.4107C23.914 26.2391 23.9993 26.0511 23.9993 25.8467V11.4867C23.9993 11.2822 23.914 11.0942 23.7433 10.9227C23.5718 10.752 23.3838 10.6667 23.1793 10.6667H20.666V14C20.666 14.1893 20.6025 14.348 20.4753 14.476C20.3473 14.6031 20.1887 14.6667 19.9993 14.6667C19.81 14.6667 19.6513 14.6031 19.5233 14.476C19.3962 14.348 19.3327 14.1893 19.3327 14V10.6667H12.666V14C12.666 14.1893 12.6025 14.348 12.4753 14.476C12.3473 14.6031 12.1887 14.6667 11.9993 14.6667C11.81 14.6667 11.6513 14.6031 11.5233 14.476C11.3962 14.348 11.3327 14.1893 11.3327 14V10.6667H8.81935C8.6149 10.6667 8.4269 10.752 8.25535 10.9227C8.08468 11.0942 7.99935 11.2822 7.99935 11.4867V25.8467C7.99935 26.0511 8.08468 26.2391 8.25535 26.4107C8.4269 26.5813 8.6149 26.6667 8.81935 26.6667ZM12.666 9.33333H19.3327V8.66667C19.3327 7.728 19.0118 6.93778 18.37 6.296C17.7282 5.65422 16.938 5.33333 15.9993 5.33333C15.0607 5.33333 14.2705 5.65422 13.6287 6.296C12.9869 6.93778 12.666 7.728 12.666 8.66667V9.33333Z" fill="black"/>
</svg>
