<svg width="32" height="24" viewBox="0 0 32 24" fill="none" xmlns="http://www.w3.org/2000/svg">
<mask id="mask0_1269_862" style="mask-type:luminance" maskUnits="userSpaceOnUse" x="0" y="0" width="32" height="24">
<rect width="32" height="24" fill="white"/>
</mask>
<g mask="url(#mask0_1269_862)">
<path fill-rule="evenodd" clip-rule="evenodd" d="M2 0C0.895431 0 0 0.895431 0 2V22C0 23.1046 0.895431 24 2 24H30C31.1046 24 32 23.1046 32 22V2C32 0.89543 31.1046 0 30 0H2Z" fill="#3D58DB"/>
<mask id="mask1_1269_862" style="mask-type:luminance" maskUnits="userSpaceOnUse" x="0" y="0" width="32" height="24">
<path fill-rule="evenodd" clip-rule="evenodd" d="M2 0C0.895431 0 0 0.895431 0 2V22C0 23.1046 0.895431 24 2 24H30C31.1046 24 32 23.1046 32 22V2C32 0.89543 31.1046 0 30 0H2Z" fill="white"/>
</mask>
<g mask="url(#mask1_1269_862)">
<path fill-rule="evenodd" clip-rule="evenodd" d="M0 0V8H32V0H0Z" fill="#F7FCFF"/>
<path fill-rule="evenodd" clip-rule="evenodd" d="M0 16V24H32V16H0Z" fill="#C51918"/>
</g>
</g>
</svg>
