<svg width="554" height="212" viewBox="0 0 554 212" fill="none" xmlns="http://www.w3.org/2000/svg">
<mask id="mask0_2042_10126" style="mask-type:alpha" maskUnits="userSpaceOnUse" x="0" y="0" width="535" height="207">
<path d="M0 166.883V133.72L83.1496 2.72303H111.741V48.6255H94.8197L42.4014 131.581V133.137H160.561V166.883H0ZM95.5977 201.893V156.769L96.3757 142.084V2.72303H135.86V201.893H95.5977Z" fill="black"/>
<path d="M266.711 206.269C249.984 206.205 235.591 202.088 223.531 193.918C211.537 185.749 202.298 173.917 195.815 158.422C189.396 142.927 186.219 124.287 186.284 102.503C186.284 80.7832 189.494 62.273 195.912 46.9722C202.396 31.6714 211.634 20.0337 223.629 12.0591C235.688 4.01971 250.049 0 266.711 0C283.373 0 297.701 4.01971 309.696 12.0591C321.755 20.0985 331.026 31.7687 337.51 47.0695C343.993 62.3055 347.202 80.7832 347.137 102.503C347.137 124.352 343.896 143.024 337.412 158.519C330.994 174.014 321.787 185.847 309.793 194.016C297.799 202.185 283.438 206.269 266.711 206.269ZM266.711 171.356C278.122 171.356 287.231 165.618 294.038 154.143C300.846 142.667 304.217 125.454 304.152 102.503C304.152 87.3962 302.596 74.8184 299.484 64.7692C296.437 54.7199 292.093 47.1667 286.453 42.1097C280.877 37.0526 274.296 34.5241 266.711 34.5241C255.365 34.5241 246.288 40.1971 239.481 51.543C232.673 62.889 229.237 79.8755 229.172 102.503C229.172 117.803 230.696 130.576 233.743 140.819C236.855 150.998 241.231 158.649 246.872 163.771C252.512 168.828 259.125 171.356 266.711 171.356Z" fill="black"/>
<path d="M374.149 166.883V133.72L457.298 2.72303H485.89V48.6255H468.969L416.55 131.581V133.137H534.71V166.883H374.149ZM469.747 201.893V156.769L470.525 142.084V2.72303H510.009V201.893H469.747Z" fill="black"/>
</mask>
<g mask="url(#mask0_2042_10126)">
<path d="M-23.4846 5.21495L524.735 -52.4053L538.027 74.0568L-10.1929 131.677L-23.4846 5.21495Z" fill="#021F4B"/>
</g>
<mask id="mask1_2042_10126" style="mask-type:alpha" maskUnits="userSpaceOnUse" x="19" y="5" width="535" height="207">
<path d="M19 171.883V138.72L102.15 7.72303H130.741V53.6255H113.82L61.4014 136.581V138.137H179.561V171.883H19ZM114.598 206.893V161.769L115.376 147.084V7.72303H154.86V206.893H114.598Z" fill="black"/>
<path d="M285.711 211.269C268.984 211.205 254.591 207.088 242.531 198.918C230.537 190.749 221.298 178.917 214.815 163.422C208.396 147.927 205.219 129.287 205.284 107.503C205.284 85.7832 208.494 67.273 214.912 51.9722C221.396 36.6714 230.634 25.0337 242.629 17.0591C254.688 9.01971 269.049 5 285.711 5C302.373 5 316.701 9.01971 328.696 17.0591C340.755 25.0985 350.026 36.7687 356.51 52.0695C362.993 67.3055 366.202 85.7832 366.137 107.503C366.137 129.352 362.896 148.024 356.412 163.519C349.994 179.014 340.787 190.847 328.793 199.016C316.799 207.185 302.438 211.269 285.711 211.269ZM285.711 176.356C297.122 176.356 306.231 170.618 313.038 159.143C319.846 147.667 323.217 130.454 323.152 107.503C323.152 92.3962 321.596 79.8184 318.484 69.7692C315.437 59.7199 311.093 52.1667 305.453 47.1097C299.877 42.0526 293.296 39.5241 285.711 39.5241C274.365 39.5241 265.288 45.1971 258.481 56.543C251.673 67.889 248.237 84.8755 248.172 107.503C248.172 122.803 249.696 135.576 252.743 145.819C255.855 155.998 260.231 163.649 265.872 168.771C271.512 173.828 278.125 176.356 285.711 176.356Z" fill="black"/>
<path d="M393.149 171.883V138.72L476.298 7.72303H504.89V53.6255H487.969L435.55 136.581V138.137H553.71V171.883H393.149ZM488.747 206.893V161.769L489.525 147.084V7.72303H529.009V206.893H488.747Z" fill="black"/>
</mask>
<g mask="url(#mask1_2042_10126)">
<path d="M1.97046 137.306L550.19 79.6855L563.482 206.148L15.2622 263.768L1.97046 137.306Z" fill="#002B6B"/>
</g>
</svg>
