<svg width="56" height="72" viewBox="0 0 56 72" fill="none" xmlns="http://www.w3.org/2000/svg">
<g filter="url(#filter0_i_1385_12931)">
<path d="M3.38958 72C2.28501 72 1.38958 71.1046 1.38958 70V59.0693C1.38958 58.4727 1.65597 57.9072 2.11602 57.5272L27.9305 36.2081C29.6907 34.7514 31.196 33.3873 32.4466 32.1156C33.7204 30.8208 34.6931 29.4913 35.3648 28.1272C36.0595 26.763 36.4069 25.2486 36.4069 23.5838C36.4069 21.7572 36.0132 20.1965 35.2258 18.9017C34.4615 17.6069 33.3962 16.6127 32.0298 15.9191C30.6634 15.2023 29.0885 14.8439 27.3052 14.8439C25.5219 14.8439 23.9471 15.2023 22.5806 15.9191C21.2374 16.6358 20.1952 17.6879 19.4541 19.0751C18.9746 19.9727 18.6503 20.996 18.481 22.1452C18.32 23.2379 17.447 24.1387 16.3424 24.1387H2C0.895433 24.1387 -0.0077579 23.2419 0.0623247 22.1396C0.326292 17.9876 1.42876 14.3534 3.36973 11.237C5.61621 7.63006 8.78908 4.85549 12.8883 2.9133C16.9876 0.971099 21.7932 0 27.3052 0C33.0025 0 37.9355 0.913296 42.1042 2.73989C46.2961 4.54336 49.5269 7.08671 51.7965 10.3699C54.0893 13.6532 55.2357 17.5029 55.2357 21.9191C55.2357 24.6474 54.6683 27.3642 53.5335 30.0694C52.3987 32.7514 50.3606 35.7225 47.4194 38.9827C44.4781 42.2428 40.2978 46.1272 34.8784 50.6358L28.3106 56.1C28.2459 56.1538 28.2084 56.2337 28.2084 56.3178C28.2084 56.4743 28.3353 56.6012 28.4918 56.6012H54C55.1046 56.6012 56 57.4966 56 58.6012V70C56 71.1046 55.1046 72 54 72H3.38958Z" fill="#B5B3A7"/>
</g>
<defs>
<filter id="filter0_i_1385_12931" x="0.0585938" y="0" width="55.9414" height="72" filterUnits="userSpaceOnUse" color-interpolation-filters="sRGB">
<feFlood flood-opacity="0" result="BackgroundImageFix"/>
<feBlend mode="normal" in="SourceGraphic" in2="BackgroundImageFix" result="shape"/>
<feColorMatrix in="SourceAlpha" type="matrix" values="0 0 0 0 0 0 0 0 0 0 0 0 0 0 0 0 0 0 127 0" result="hardAlpha"/>
<feOffset/>
<feGaussianBlur stdDeviation="2"/>
<feComposite in2="hardAlpha" operator="arithmetic" k2="-1" k3="1"/>
<feColorMatrix type="matrix" values="0 0 0 0 0 0 0 0 0 0 0 0 0 0 0 0 0 0 0.25 0"/>
<feBlend mode="normal" in2="shape" result="effect1_innerShadow_1385_12931"/>
</filter>
</defs>
</svg>
