<svg width="58" height="72" viewBox="0 0 58 72" fill="none" xmlns="http://www.w3.org/2000/svg">
<g filter="url(#filter0_i_1385_12932)">
<path d="M28.655 72C23.0985 72 18.162 71.0532 13.8453 69.1597C9.55168 67.2433 6.17645 64.6084 3.71965 61.2548C1.64704 58.4256 0.440506 55.2392 0.100051 51.6956C-0.0059806 50.592 0.901879 49.6882 2.01057 49.6882H17.3209C18.4121 49.6882 19.2634 50.5862 19.6188 51.6179C19.8254 52.2175 20.1281 52.7834 20.5269 53.3156C21.3535 54.365 22.4786 55.1863 23.9022 55.7795C25.3257 56.3726 26.9559 56.6692 28.7928 56.6692C30.5608 56.6692 32.1221 56.3612 33.4768 55.7453C34.8315 55.1065 35.8877 54.2281 36.6454 53.1103C37.4031 51.9924 37.7705 50.7148 37.7475 49.2776C37.7705 47.8631 37.3342 46.6084 36.4388 45.5133C35.5662 44.4183 34.3378 43.5627 32.7535 42.9468C31.1693 42.3308 29.3439 42.0228 27.2774 42.0228H22.1136C21.0091 42.0228 20.1136 41.1274 20.1136 40.0228V30.8821C20.1136 29.7776 21.0091 28.8821 22.1136 28.8821H27.2774C29.1831 28.8821 30.8593 28.5741 32.3058 27.9582C33.7753 27.3422 34.9119 26.4867 35.7155 25.3916C36.5421 24.2966 36.9439 23.0418 36.9209 21.6274C36.9439 20.2586 36.611 19.0494 35.9221 18C35.2333 16.9506 34.269 16.1293 33.0291 15.5361C31.8122 14.943 30.4001 14.6464 28.7928 14.6464C27.0478 14.6464 25.4865 14.9544 24.1088 15.5703C22.7541 16.1863 21.6865 17.0418 20.9058 18.1369C20.5023 18.7029 20.2 19.3115 19.9989 19.9628C19.6768 21.0061 18.8245 21.9011 17.7325 21.9011H3.38838C2.27963 21.9011 1.37184 20.9972 1.47654 19.8934C1.80594 16.4206 2.95546 13.3028 4.92509 10.5399C7.29005 7.25475 10.5275 4.67681 14.6375 2.80608C18.7475 0.935361 23.4659 0 28.7928 0C34.0049 0 38.6085 0.878327 42.6037 2.63498C46.6219 4.39163 49.756 6.80989 52.0062 9.88974C54.2793 12.9468 55.4044 16.4487 55.3814 20.3954C55.4273 24.3194 54.0726 27.5361 51.3173 30.0456C48.6442 32.5007 45.2679 33.9732 41.1884 34.4632C41.0338 34.4817 40.9161 34.6123 40.9161 34.768C40.9161 34.9238 41.0344 35.0545 41.1892 35.0723C46.7475 35.7137 50.9386 37.4374 53.7627 40.2434C56.6328 43.0722 58.0448 46.6312 57.9989 50.9202C58.0219 55.0266 56.782 58.6654 54.2793 61.8365C51.7995 65.0076 48.3439 67.4943 43.9125 69.2966C39.504 71.0989 34.4182 72 28.655 72Z" fill="#BB9353"/>
</g>
<defs>
<filter id="filter0_i_1385_12932" x="0.0917969" y="0" width="57.9082" height="72" filterUnits="userSpaceOnUse" color-interpolation-filters="sRGB">
<feFlood flood-opacity="0" result="BackgroundImageFix"/>
<feBlend mode="normal" in="SourceGraphic" in2="BackgroundImageFix" result="shape"/>
<feColorMatrix in="SourceAlpha" type="matrix" values="0 0 0 0 0 0 0 0 0 0 0 0 0 0 0 0 0 0 127 0" result="hardAlpha"/>
<feOffset/>
<feGaussianBlur stdDeviation="2"/>
<feComposite in2="hardAlpha" operator="arithmetic" k2="-1" k3="1"/>
<feColorMatrix type="matrix" values="0 0 0 0 0 0 0 0 0 0 0 0 0 0 0 0 0 0 0.25 0"/>
<feBlend mode="normal" in2="shape" result="effect1_innerShadow_1385_12932"/>
</filter>
</defs>
</svg>
